<?xml version="1.0" encoding="utf-8"?>
<!DOCTYPE svg PUBLIC "-//W3C//DTD SVG 20010904//EN" "http://www.w3.org/TR/2001/REC-SVG-20010904/DTD/svg10.dtd">
<svg version="1.0" xmlns="http://www.w3.org/2000/svg" width="959px" height="959px" viewBox="0 0 959 959" preserveAspectRatio="xMidYMid meet">
 <g fill="#ffffff">
  <path d="M0 479.5 l0 -479.5 479.5 0 479.5 0 0 479.5 0 479.5 -479.5 0 -479.5 0 0 -479.5z m499.8 443.1 c27.6 -22.1 42.6 -34.2 49.7 -39.9 1.7 -1.4 10.7 -8.6 20 -16.1 9.4 -7.5 31.6 -25.5 49.5 -39.9 39.8 -32 43.4 -34.9 70 -56.2 24.8 -19.9 33.7 -27.1 36.5 -29.3 1.1 -1 6.5 -5.3 12 -9.7 5.5 -4.3 10.9 -8.7 12 -9.6 1.1 -1 7.2 -5.9 13.5 -11 6.3 -5 15.4 -12.3 20.3 -16.2 l8.7 -7 0 -53.2 c0 -50.5 -0.1 -53.3 -1.9 -55.3 -2.4 -2.9 -3.5 -2.8 -6 0.4 -2.1 2.6 -2.1 3.6 -2.1 53.9 l0 51.3 -5.2 4.4 c-2.9 2.3 -6 4.8 -6.8 5.5 -5.9 4.7 -29.9 24.1 -31.5 25.5 -1.1 0.9 -9.4 7.6 -18.5 14.9 -9.1 7.2 -18.3 14.6 -20.5 16.4 -2.2 1.8 -11.2 9.1 -20 16.1 -8.8 7 -18.7 15 -22 17.7 -3.3 2.7 -6.7 5.4 -7.5 6 -0.9 0.7 -11.6 9.3 -23.9 19.2 -12.3 9.9 -24.8 19.9 -27.9 22.3 -3.1 2.3 -7 5.5 -8.6 7 -1.7 1.5 -5.1 4.3 -7.6 6.2 -2.5 1.9 -5.4 4.2 -6.5 5.1 -1.1 0.9 -4.5 3.7 -7.5 6.1 -3 2.4 -12.7 10.2 -21.5 17.4 -8.9 7.1 -20.3 16.3 -25.4 20.4 -5.1 4.1 -14.2 11.4 -20.1 16.3 -8 6.4 -11.6 8.7 -13.7 8.7 -2.2 0 -6 -2.5 -15 -9.7 -6.6 -5.4 -20.3 -16.5 -30.4 -24.6 -10.1 -8.1 -20.4 -16.5 -22.8 -18.5 -2.5 -2 -6.5 -5.3 -9 -7.2 -2.5 -1.9 -7.5 -5.9 -11.1 -8.8 -9 -7.5 -9.3 -7.7 -20.4 -16.7 -5.4 -4.4 -11.1 -8.9 -12.5 -10 -1.4 -1.1 -7.6 -6 -13.7 -11 -6.1 -4.9 -12.6 -10.1 -14.4 -11.5 -1.8 -1.4 -3.8 -3 -4.4 -3.5 -1.2 -1.1 -22 -17.8 -44.6 -36 -7.4 -5.9 -15.3 -12.3 -17.5 -14.1 -2.2 -1.8 -5.6 -4.6 -7.6 -6.1 -2 -1.5 -8.3 -6.6 -14 -11.3 -5.7 -4.6 -19.4 -15.6 -30.4 -24.4 -11 -8.8 -21.5 -17.4 -23.2 -19 l-3.2 -2.9 -0.3 -51.8 -0.3 -51.8 -2.2 -2 c-2.8 -2.7 -3.8 -2.6 -5.7 0.1 -1.4 2 -1.6 8.9 -1.6 55.4 l0 53.1 3.3 2.7 c5.7 4.8 9.9 8.2 26.3 21.3 8.8 7 24 19.3 33.8 27.3 9.9 8 20.5 16.5 23.6 19 7.5 5.9 35.2 28 49.4 39.5 6.1 5 21.7 17.5 34.6 27.9 12.9 10.4 24.9 20.1 26.6 21.5 1.7 1.4 4 3.3 5 4.1 1.1 0.8 6.4 5.1 11.9 9.5 5.5 4.5 19.2 15.5 30.5 24.5 11.3 9 20.7 16.7 21 17 0.3 0.3 2.5 2.1 5 4 2.5 1.9 5.4 4.3 6.5 5.2 9.7 8.1 25.9 20.8 26.7 20.8 0.5 0 6.2 -4.2 12.6 -9.4z m-147.4 -195.1 c0.6 -2.2 1.1 -2.5 5.6 -2.5 3 0 5 0.4 5 1.1 0 0.8 0.4 0.8 1.3 0.1 0.6 -0.5 3.3 -1.3 6 -1.6 3.1 -0.5 4.7 -1.2 4.7 -2.2 0 -1 1.3 -1.4 5 -1.4 3.7 0 5 -0.4 5 -1.5 0 -1.5 1.4 -2 8.5 -2.9 2.2 -0.3 5.9 -0.8 8.2 -1.2 3.7 -0.6 4.5 -0.3 6.1 1.6 l1.9 2.3 2.9 -3.6 c1.6 -2.1 3.3 -3.7 3.7 -3.7 0.5 0 2 -0.9 3.4 -2 1.8 -1.4 4.1 -2 7.8 -2 5.2 0 10.3 -1.8 12.5 -4.5 1.5 -1.8 6.9 -1.9 14 -0.4 4.3 0.9 5.4 0.8 6.9 -0.5 1.2 -1.1 3.6 -1.5 7.8 -1.5 3.3 0.1 6.8 -0.4 7.9 -0.9 1 -0.6 3.4 -1.7 5.2 -2.4 2.6 -1 3.2 -1.9 3.2 -4.2 l0 -2.9 6 0.7 c6 0.7 6 0.7 6 -1.9 0 -2.4 0.3 -2.5 5.3 -2.6 15.5 -0.2 15.4 -0.1 16.7 -3.6 1.1 -3.2 1.4 -3.3 6.3 -3.3 2.9 0.1 7.9 0.7 11.2 1.5 3.3 0.8 7.9 1.5 10.3 1.5 3.6 0 4.2 -0.3 4.2 -2 0 -1.2 1 -2.4 2.4 -3 1.3 -0.5 2.6 -1.6 2.8 -2.4 0.1 -0.8 6.5 -7.8 14.1 -15.6 10.1 -10.3 14.4 -14 16.1 -14 3.1 0 5.6 -2.5 5.6 -5.4 0 -1.3 0.9 -3.1 2 -4.1 1.1 -1 2.2 -2.6 2.5 -3.6 0.4 -1.1 1.1 -1.9 1.7 -1.9 0.5 0 4.1 -2.4 8 -5.2 5.6 -4.2 8.4 -7.3 13.5 -15 3.5 -5.4 6.9 -9.8 7.6 -9.8 1.7 0 5.2 -4 7.9 -8.8 1.1 -2 3.2 -5 4.6 -6.6 l2.7 -2.8 -5.2 2.6 c-2.9 1.4 -5.3 3.3 -5.3 4.1 0 0.8 -1.5 2.1 -3.3 2.9 -1.9 0.7 -4.8 3.1 -6.5 5.2 -3.4 4.1 -8.8 6.4 -15.4 6.4 -2.5 0 -4.4 0.7 -5.8 2.2 -1.6 1.7 -3.5 2.3 -8.7 2.6 -6.1 0.4 -6.9 0.8 -10.3 4.2 -2.3 2.4 -5.2 4.1 -8.2 4.8 -6.7 1.7 -28.3 1.5 -33.3 -0.3 -2.2 -0.8 -5.3 -1.4 -7 -1.3 -2.3 0.1 -2.5 0.2 -0.7 0.5 3.2 0.6 5.2 4.3 5.9 10.6 0.6 6.3 0.9 6.1 -9.4 7.2 -8.6 0.9 -11.9 0.1 -13.2 -3.6 -0.9 -2.7 -3.1 -4.1 -3.1 -1.9 0 0.6 -1.8 1 -3.9 1 -3.3 0 -4 -0.4 -4.3 -2.2 -0.2 -1.6 -1.1 -2.4 -2.8 -2.6 -1.4 -0.2 -3.4 -1.2 -4.5 -2.2 -1.1 -1 -2.9 -2 -4 -2.2 -3.8 -0.7 -5.6 -6.3 -4.9 -16 l0.6 -8.8 -4.1 0 c-3.9 0 -4.1 -0.2 -4.1 -3 0 -1.6 -0.5 -3 -1.2 -3 -0.6 0 -1.9 -0.7 -2.9 -1.6 -1.6 -1.4 -1.8 -1.4 -2.4 0.5 -0.4 1.4 -1.5 2.1 -3 2.1 -1.3 0 -4 0.8 -5.9 1.8 -2.7 1.3 -3.6 2.3 -3.6 4.4 0 1.5 -0.4 2.9 -0.9 3.2 -0.5 0.3 -1.2 2.1 -1.5 3.9 l-0.6 3.4 -11.5 1.3 -11.5 1.2 0 5.8 c0 3.4 -0.5 6.2 -1.3 6.8 -0.7 0.6 -5.3 1.2 -10.2 1.5 -11.8 0.5 -16.5 2.2 -16.5 5.9 0 2.2 -0.6 2.9 -2.7 3.4 -1.6 0.3 -4.8 1.2 -7.3 2 -2.5 0.9 -5.5 1.8 -6.7 2.1 -1.8 0.4 -2.3 1.2 -2.3 3.9 l0 3.5 -5.7 -0.2 c-3.2 -0.1 -8.4 0.2 -11.7 0.6 -4.5 0.6 -6 0.4 -6.7 -0.6 -0.6 -0.9 -0.9 -0.1 -0.9 2.4 0 3 -0.4 4 -2 4.4 -1.4 0.4 -2 1.4 -2 3.3 0 4 1.8 5 7.7 4.3 4.5 -0.5 5.3 -0.3 6.5 1.6 0.7 1.1 1.9 2.1 2.6 2.1 0.8 0 2.5 0.9 3.9 2 1.4 1.1 3.5 2 4.7 2 3 0 4.6 1.9 4.6 5.4 0 4.4 -2.5 11 -4.3 11.4 -0.9 0.2 -1.7 1.9 -2 4.5 -1.1 8.5 -1.8 10.4 -4.8 12.1 -1.9 1.1 -2.9 2.5 -2.9 4.1 0 1.9 -0.9 2.6 -4.7 3.9 -2.6 0.9 -5.9 1.6 -7.4 1.6 -2.8 0 -8.9 2.9 -8.9 4.3 0 0.4 -1.5 0.7 -3.4 0.7 -3.1 0 -3.4 0.3 -3.9 3.6 -0.4 2.5 -0.2 4.1 0.8 5.1 0.8 0.8 1.5 2.5 1.5 3.9 0 3.1 1.6 3.1 2.4 -0.1z m82.3 -226.5 c14.9 -4.1 25.5 -11 33.2 -21.4 8.5 -11.5 11.3 -21.6 9.2 -33.4 -2.6 -14.7 -9.3 -24.3 -32 -46.4 -19.9 -19.2 -21.5 -22 -20.9 -36.1 0.5 -11.2 2.5 -15.8 8.6 -20.2 4 -2.7 5.2 -3 13.5 -3.3 8.7 -0.3 9.4 -0.2 13.7 2.6 9 5.7 15.8 19.3 16.9 33.7 0.4 6 1 8 2.1 8.2 3.3 0.6 4.2 -1.5 5.6 -14.3 0.8 -7.1 2.1 -16.6 2.8 -21 l1.2 -8.2 -4.5 -0.5 c-2.5 -0.3 -9.8 -2 -16.1 -3.8 -19.5 -5.4 -39.6 -4.4 -55 2.9 -7.7 3.7 -18.8 14.9 -22.8 23.2 -4.8 9.7 -5.9 17.2 -3.8 25.6 3.1 13 8.6 20.3 32.9 44.9 19.4 19.5 21.1 22.2 21.1 35 0.1 15 -3.4 22.3 -12.9 26.6 -6.1 2.8 -22.3 2.7 -28.1 -0.3 -12.6 -6.3 -21.2 -21.3 -23.7 -41.3 -1.1 -9.3 -1.7 -10.6 -4.7 -9.8 -1.4 0.4 -2 2.4 -3 9.6 -0.6 5.1 -2.3 15.1 -3.6 22.2 -1.3 7.2 -2.4 13.5 -2.4 14.1 0 0.5 3.7 2.1 8.3 3.4 4.5 1.2 11.1 3.5 14.7 5 6.1 2.5 12.4 4.4 18 5.4 5.6 1 24.7 -0.4 31.7 -2.4z m127.1 1.3 c1.1 -1 7.1 -8.8 13.4 -17.3 18 -24.4 30.8 -41.7 49.3 -66.5 9.4 -12.6 21.4 -28.8 26.5 -35.9 22.8 -31 29.1 -36.7 42.6 -38.8 5.6 -0.9 7.8 -1.7 8.5 -3.1 0.6 -1 0.8 -2.1 0.6 -2.4 -0.3 -0.2 -12.5 -0.5 -27.2 -0.6 -20.2 -0.2 -26.9 0.1 -27.7 1 -1.8 2.2 -0.1 4 4.2 4.6 5.4 0.7 6.8 2 7.5 7.1 1 6.4 -0.8 11.3 -7.8 20.6 -20 26.9 -39.3 52.9 -46.6 62.8 -7.8 10.4 -8.5 11.2 -11.7 11.2 -3.1 0 -3.4 -0.3 -3.4 -3 0 -1.7 -0.7 -15.2 -1.5 -30 -2.2 -37.1 -2.4 -57.7 -0.7 -61.7 1.8 -4 6.3 -6.2 14.7 -7 5.1 -0.5 6.8 -1 7.6 -2.5 0.6 -1.1 0.8 -2.2 0.5 -2.6 -0.4 -0.3 -20.2 -0.6 -44.1 -0.6 l-43.4 -0.1 -1 2.3 c-1.2 2.6 -1.3 2.5 6.9 4.2 10 1.9 13.3 7.6 14.4 25 0.3 4.7 1.3 17.5 2.1 28.5 1.5 20.6 5.1 70.9 6 85 1.2 17.6 1.6 19.6 3.9 20.5 3.2 1.3 4.2 1.2 6.4 -0.7z m-340.5 -11.4 c1.1 -4.6 3.6 -15.5 5.8 -24.2 2.1 -8.8 3.7 -16.3 3.3 -16.8 -1.4 -2.4 -4.1 -0.7 -5.5 3.3 -4 12.3 -18.6 28.1 -31.6 34.5 l-7.8 3.8 -19.1 0 c-23.7 0 -23.4 0.2 -23.4 -11.7 0 -6.1 1.3 -13.5 6 -33.5 3.3 -14 6.3 -25.9 6.6 -26.4 0.7 -1.2 12.4 -1.1 19.7 0.1 10.6 1.7 14.5 6.4 15.4 18.6 0.6 7.8 1.1 8.8 3.7 7.8 1.9 -0.7 3.1 -4.6 5.1 -15.9 1.3 -7.5 7.1 -32.5 9.1 -38.7 0.4 -1.3 0 -1.8 -1.5 -1.8 -1.5 0 -2.8 1.7 -5.1 6.4 -5.7 12.1 -12.7 15.6 -31.2 15.6 l-11.8 0 0 -4 c0 -2.1 1.5 -10.3 3.4 -18.2 1.9 -7.9 4.4 -18.7 5.6 -24 2.6 -11.3 5.4 -16.7 9.5 -18.8 2 -1 6.8 -1.6 14.2 -1.8 14.9 -0.5 19.4 1 27.2 8.7 7.7 7.7 10.8 14.4 13.7 29.7 0.2 1.2 1 2.4 1.7 2.7 3.4 1.3 4 -0.9 4.8 -18.4 0.5 -9.6 1.2 -20.3 1.7 -23.9 l0.8 -6.5 -65 0.1 -65 0.1 -1.4 2.1 c-1.6 2.5 -1.9 2.3 7.1 4.2 12.9 2.6 12.9 6.2 1.2 56.2 -20 85.2 -19.6 83.7 -23.4 88.1 -2 2.4 -6.9 4.4 -12.8 5.3 -4.8 0.6 -8.3 2.7 -8.3 4.8 0 0.8 20.4 1.1 72.7 1 l72.8 -0.1 1.8 -8.4z m539.8 7.4 c1.9 -1.9 0.2 -4.3 -2.8 -4.3 -5.3 0 -10 -1.9 -10.7 -4.3 -1.6 -6.1 -0.4 -15.6 4.8 -37.5 2.9 -12.5 5.8 -24.5 6.3 -26.7 l0.9 -4 30.7 -0.3 30.7 -0.2 0 3.2 c0 1.8 -1.1 8 -2.4 13.8 -1.4 5.8 -4.1 17.7 -6.1 26.5 -5.3 22.7 -7.4 26.2 -17.9 28.9 -6.1 1.6 -8.6 3.1 -8.6 5 0 0.8 11.2 1.1 40.9 1.1 l41 0.1 1 -2.2 c1.2 -2.7 0.6 -3.4 -3.2 -3.4 -5.6 0 -10.9 -2.2 -12.9 -5.4 -3.1 -5 -1.8 -13.4 8.6 -57.1 5.3 -22 11.4 -47.6 13.7 -57 6 -25.2 8.2 -28.6 20.1 -30.7 5.6 -1 9.8 -3.4 9.8 -5.7 0 -0.3 -18.3 -0.6 -40.7 -0.5 -37.9 0.1 -40.7 0.2 -41.9 1.9 -1.8 2.5 -1.1 3.2 4 3.9 2.5 0.4 5.6 1.6 7 2.7 2.5 1.9 2.6 2.5 2.5 11.2 0 7.6 -1 13.2 -5.8 32.7 l-5.7 23.5 -30.7 0.3 -30.7 0.2 0 -3.9 c0 -4.1 8.3 -40.2 12 -52.3 2.8 -9 6 -12.2 13.5 -13.8 5.2 -1.1 9.4 -3.8 9.5 -6 0 -0.3 -18.5 -0.5 -41.2 -0.5 l-41.1 0.1 -0.8 2.2 c-1 2.6 -1 2.6 7.2 4.2 8.4 1.6 9.9 3.5 9.9 12.3 -0.1 8.6 1 3.5 -13.9 66.7 -14.5 61.3 -14.5 61.1 -18 64.9 -2.7 2.9 -11 6.1 -15.7 6.1 -2.4 0 -5.4 2.4 -5.4 4.3 0 1.7 80.4 1.7 82.1 0z m-428.9 -71.5 c2.1 -1.8 2.9 -6.8 1.7 -11.2 l-1 -3.6 -30 0 -29.9 0 -1.1 2.8 c-1.2 3.2 -0.6 9.6 1.1 11.7 1 1.3 5.9 1.5 29.4 1.5 21.1 0 28.6 -0.3 29.8 -1.2z m-141.6 -143.9 c1.8 -2 1.9 -5.8 2.4 -117.3 l0.5 -115.1 61.6 -0.5 c64.5 -0.5 64.9 -0.6 64.9 -4.8 0 -0.8 -0.7 -2.4 -1.7 -3.4 -1.5 -1.7 -5 -1.8 -68.5 -1.8 l-66.8 0 0 120.7 c0 110.9 0.1 120.8 1.7 122.5 2.1 2.3 3.6 2.3 5.9 -0.3z m599.4 0.1 c2 -2 2 -3.3 2 -122.5 l0 -120.5 -59.3 0 -59.4 0 -2.2 2.3 c-2.4 2.6 -2 5.1 1 6.7 1.1 0.6 22.2 1 54.3 1 28.8 0 53.1 0.3 54 0.6 1.4 0.6 1.6 11.6 1.6 114.9 0 114 0 114.2 2.1 116.9 2.5 3.1 3.3 3.2 5.9 0.6z m-174.7 -35.8 c2.9 0.3 6.1 0.2 7.2 -0.3 1.7 -0.6 1.7 -0.8 0.3 -0.8 -3.2 -0.2 -2.3 -5.7 1.5 -9.1 2.8 -2.6 3.9 -2.9 9.5 -3 l6.3 0 -3.4 -2.9 c-4 -3.6 -13.4 -7.4 -14.3 -5.9 -0.5 0.7 -4 0.8 -10.4 0.4 -7.2 -0.5 -12 -0.2 -18.6 1 -6.2 1.2 -15.5 1.7 -30.9 1.9 -18 0.2 -22.8 0.5 -26.5 1.9 -2.5 1 -7.4 2.1 -11 2.5 -6.2 0.7 -6.4 0.8 -3.6 1.9 2 0.9 3.9 0.9 6.5 0.2 2 -0.5 7.1 -1.3 11.4 -1.6 l7.7 -0.7 0 3.6 c0 2.6 -0.6 4.1 -2.2 5.3 l-2.3 1.6 2.7 -0.6 c1.5 -0.3 5.4 -0.9 8.7 -1.2 l5.9 -0.7 1 4.4 c0.5 2.4 1 3.7 1.1 2.8 0.1 -0.9 2.1 -2.2 5.4 -3.2 6.9 -2.2 9.8 -2.1 13.9 0.1 2.2 1.2 4.1 1.6 5.8 1.1 1.4 -0.4 4.6 -0.7 7.1 -0.8 3.9 -0.1 4.8 0.2 5.2 1.9 0.3 1.1 1.3 2.3 2.4 2.6 1 0.3 3.2 1.1 4.8 1.8 2.9 1.3 3 1.3 3.3 -1.7 0.3 -2.9 0.4 -3 5.5 -2.5z m-182.3 -1.7 c0 -2.4 0.3 -2.5 6.3 -2.6 3.4 0 5.6 -0.3 5 -0.6 -0.7 -0.2 -1.3 -2 -1.3 -3.8 0 -2.5 0.7 -3.7 2.8 -5.1 1.5 -1 3.3 -2.4 4 -3.1 0.8 -0.7 3.6 -1.3 6.5 -1.3 l5.1 0 -2.1 -2.2 c-1.2 -1.2 -4.5 -3.1 -7.3 -4.3 -4.3 -1.8 -5.8 -2 -9 -1.2 -2.6 0.7 -5.6 0.7 -9.4 0.1 -5.6 -1.1 -9.6 -0.7 -22.6 1.7 -3.8 0.7 -14.1 1.2 -25 1.1 -13.7 0 -20.2 0.3 -25 1.5 -3.6 0.8 -9.4 2.1 -13 2.8 -5.8 1.1 -6.2 1.3 -3.7 2 1.6 0.4 5.9 0.3 9.7 -0.4 3.8 -0.6 8.7 -1.1 10.9 -1.1 4 0 4.1 0.1 4.1 3.3 0 1.8 -0.5 3.8 -1.1 4.4 -0.8 0.8 1 1 6.8 0.6 l8 -0.6 0.7 4.4 c0.7 3.6 0.9 4 1.6 2.3 1.6 -4 13.8 -5.8 19 -2.7 2.4 1.4 3.5 1.5 6.8 0.5 6.5 -2 10.1 -1.6 11.2 1.2 0.5 1.5 2.4 2.9 5.2 3.9 5.9 2 5.8 2 5.8 -0.8z m88.8 -77.3 c2.9 -0.3 3.2 -0.6 3.2 -3.7 0 -2.7 0.5 -3.4 2.6 -3.9 1.4 -0.4 3.8 -1.8 5.2 -3.1 2.2 -2.1 3.7 -2.5 8.5 -2.5 l5.8 0 -3.4 -3 c-1.9 -1.6 -4.7 -3.4 -6.3 -4.1 -5.3 -2 -26.8 -1.9 -40.2 0.2 -9.3 1.5 -16.6 1.9 -29.5 1.8 -16.3 -0.2 -25.5 0.8 -28.2 3.1 -0.6 0.5 -4 1 -7.5 1.2 -6.3 0.3 -6.4 0.4 -3.5 1.6 2.5 1.1 4.3 1.1 11.2 -0.3 11.4 -2.3 13.7 -1.9 14.1 2.3 0.2 2.4 -0.2 3.8 -1.5 4.8 -1.6 1.2 -1.3 1.3 2.7 0.7 2.5 -0.4 6.3 -0.8 8.5 -0.8 3.8 0 4 0.1 4.6 3.8 0.7 4.2 1.9 6.1 1.9 3 0 -3.8 14.6 -5.9 19.4 -2.8 1.8 1.2 3 1.3 5 0.5 1.5 -0.5 4.7 -1 7.2 -1 3.8 0 4.6 0.4 5.4 2.4 0.6 1.8 2.2 2.8 5.7 3.8 4.8 1.4 4.8 1.4 5.3 -1.2 0.4 -2 1.2 -2.6 3.8 -2.8z m-143.2 -52.7 c1.8 -1.4 1.7 -1.4 -1.6 -1.5 -2.9 0 -3.9 -0.6 -5.7 -3.5 -1.3 -1.9 -2.3 -5 -2.3 -6.9 0 -3.1 -0.3 -3.4 -3.5 -3.8 -2.2 -0.2 -3.1 0 -2.6 0.7 8.8 12 12.3 16.5 13 16.5 0.4 0 1.6 -0.7 2.7 -1.5z m244 -8.2 c1.5 -2 2.3 -3.3 1.6 -2.9 -1.3 0.8 -5.6 6.6 -4.9 6.6 0.3 0 1.7 -1.7 3.3 -3.7z m10.9 -14.8 c3.9 -5.8 3.9 -6.8 -0.5 -7.9 -1.4 -0.3 -1.9 -0.3 -1.2 0 2.3 1.1 1.3 6.9 -2 11.5 -1.7 2.4 -2.5 3.9 -1.7 3.2 0.9 -0.7 3.2 -3.7 5.4 -6.8z m-272.3 4.3 c-1.6 -1.6 -1.5 -9 0.1 -10.7 0.6 -0.8 -0.3 -0.3 -2 0.9 -1.8 1.3 -3.3 2.8 -3.3 3.3 0 1 5 7.7 5.8 7.7 0.3 0 0.1 -0.5 -0.6 -1.2z m51.3 -1.8 c1.7 -0.7 1.5 -0.9 -1.2 -0.9 -1.8 -0.1 -3.3 0.4 -3.3 0.9 0 1.2 1.7 1.2 4.5 0z m171.7 -4.9 c0.3 -3.3 0.1 -3.8 -1.3 -3.1 -1.8 1 -4.4 3.9 -3.8 4.4 0.4 0.3 4.3 2.5 4.5 2.6 0.1 0 0.4 -1.8 0.6 -3.9z m-160.9 -6.1 c-1.1 -4.1 -5 -6 -12.3 -6 -7.9 0 -9.4 -1.2 -8.8 -6.6 0.4 -3.6 0.4 -3.6 -1.3 -1.5 -2 2.4 -1.5 5.2 1.3 7.8 1.4 1.3 4.2 1.9 9.7 2.3 l7.6 0.5 0.3 5 0.3 5 1.9 -2.2 c1 -1.3 1.6 -3.2 1.3 -4.3z m174.2 -1 c2.5 -1.1 -0.1 -1.1 -3.5 0 -2 0.6 -2.1 0.8 -0.5 0.8 1.1 0 2.9 -0.3 4 -0.8z m-41.7 -0.7 c-1 -0.2 -2.6 -0.2 -3.5 0 -1 0.3 -0.2 0.5 1.7 0.5 1.9 0 2.7 -0.2 1.8 -0.5z m-106.3 -1.3 c0.4 -0.6 -0.7 -1 -2.5 -1 -1.8 0 -2.9 0.4 -2.5 1 0.3 0.6 1.5 1 2.5 1 1 0 2.2 -0.4 2.5 -1z m160.5 -7.8 c0 -0.9 -0.8 -2.7 -1.8 -3.9 -1.7 -2.3 -1.7 -2.2 -1.4 2.7 0.3 2.9 -0.1 5.8 -0.8 6.8 -0.7 0.9 -0.1 0.4 1.4 -1.1 1.4 -1.5 2.6 -3.6 2.6 -4.5z m-170.5 -3.2 c-3.2 -10.9 -3.3 -15.7 -0.2 -16.3 1.4 -0.3 1 -0.5 -1.4 -0.6 -3.2 -0.1 -3.6 -0.5 -4.6 -3.8 l-1 -3.8 -0.2 5.2 c0 3.1 -0.6 5.3 -1.3 5.6 -0.7 0.3 -0.2 0.6 1.2 0.6 2.3 0.1 2.7 0.9 4.9 8.9 2.5 8.9 4.2 13.5 4.8 12.9 0.1 -0.2 -0.8 -4.1 -2.2 -8.7z m28.6 5.5 c-0.1 -1.5 -2.4 -1.2 -2.9 0.3 -0.3 0.9 0.2 1.3 1.2 1 1 -0.1 1.7 -0.7 1.7 -1.3z m54.3 -0.5 c-0.5 -0.5 -4.3 -1 -8.4 -1.2 l-7.5 -0.3 -0.3 -3.9 -0.3 -3.8 -2.5 3.3 c-3.5 4.8 -3.1 5.7 2.4 6.2 10.3 0.8 17.6 0.7 16.6 -0.3z m20.8 -4.4 c-0.2 -2.9 0.1 -7.1 0.7 -9.2 1.3 -4.6 0.6 -5.8 -1.1 -1.8 -1.8 4.3 -1.5 16.4 0.4 16.4 0.2 0 0.1 -2.4 0 -5.4z m25.2 -1.3 c1.8 -5.2 2.1 -11 0.6 -13.3 -0.7 -1.1 -1 0.3 -1 4.6 0 3.4 -0.7 8 -1.5 10.3 -0.8 2.3 -1 3.9 -0.6 3.6 0.5 -0.3 1.6 -2.6 2.5 -5.2z m-44.4 -21.6 c0 -2.4 -5 -7.4 -8.4 -8.3 -1.4 -0.3 -4.3 -0.3 -6.4 0.2 -3.5 0.8 -3.4 0.8 2.8 1.4 3.6 0.3 7.1 0.9 7.8 1.3 0.7 0.5 1.2 3 1.2 6 0.1 4.8 0.2 5 1.5 3.3 0.8 -1.1 1.5 -2.8 1.5 -3.9z m35.2 -0.8 c-1.8 -0.7 -7.2 0.3 -7.2 1.3 0 0.2 2.1 0.1 4.8 -0.1 3.9 -0.3 4.3 -0.5 2.4 -1.2z"/>
  <path d="M477 692.5 c0 -3.3 0.2 -3.5 3.5 -3.5 3.3 0 3.5 0.2 3.5 3.5 0 3.3 -0.2 3.5 -3.5 3.5 -3.3 0 -3.5 -0.2 -3.5 -3.5z"/>
 </g>
 <g fill="#aaaaaa">
  <path d="M472.5 926.4 c-7.1 -5.8 -13.9 -11.3 -15 -12.2 -1.1 -0.9 -4 -3.3 -6.5 -5.2 -2.5 -1.9 -4.7 -3.7 -5 -4 -0.3 -0.3 -9.7 -8 -21 -17 -11.3 -9 -25 -20 -30.5 -24.5 -5.5 -4.4 -10.8 -8.7 -11.9 -9.5 -1 -0.8 -3.3 -2.7 -5 -4.1 -1.7 -1.4 -13.7 -11.1 -26.6 -21.5 -12.9 -10.4 -28.5 -22.9 -34.6 -27.9 -14.2 -11.5 -41.9 -33.6 -49.4 -39.5 -3.1 -2.5 -13.7 -11 -23.6 -19 -9.8 -8 -25 -20.3 -33.8 -27.3 -19.5 -15.6 -23.1 -18.5 -26.8 -21.7 l-2.8 -2.5 0 -55.8 c-0.1 -38.4 0.3 -56.3 1 -57.8 1.1 -1.9 4.8 -3.9 7.4 -3.9 0.7 0 2.6 1.1 4.2 2.5 l2.9 2.5 0.3 51.9 0.3 51.8 3.2 2.9 c1.7 1.6 12.2 10.2 23.2 19 11 8.8 24.7 19.8 30.4 24.4 5.7 4.7 12 9.8 14 11.3 2 1.5 5.4 4.3 7.6 6.1 2.2 1.8 10.1 8.2 17.5 14.1 22.6 18.2 43.4 34.9 44.6 36 0.6 0.5 2.6 2.1 4.4 3.5 1.8 1.4 8.3 6.6 14.4 11.5 6.1 5 12.3 9.9 13.7 11 1.4 1.1 7.1 5.6 12.5 10 11.1 9 11.4 9.2 20.4 16.7 3.6 2.9 8.6 6.9 11.1 8.8 2.5 1.9 6.5 5.2 9 7.2 2.4 2 12.7 10.4 22.8 18.5 10.1 8.1 23.8 19.2 30.4 24.5 l12 9.7 10.7 -8.7 c6 -4.8 15 -12.1 20.1 -16.2 5.1 -4.1 16.5 -13.3 25.4 -20.4 8.8 -7.2 18.5 -15 21.5 -17.4 3 -2.4 6.4 -5.2 7.5 -6.1 1.1 -0.9 4 -3.2 6.5 -5.1 2.5 -1.9 5.9 -4.7 7.6 -6.2 1.6 -1.5 5.5 -4.7 8.6 -7 3.1 -2.4 15.6 -12.4 27.9 -22.3 12.3 -9.9 23 -18.5 23.9 -19.2 0.8 -0.6 4.2 -3.3 7.5 -6 3.3 -2.7 13.2 -10.7 22 -17.7 8.8 -7 17.8 -14.3 20 -16.1 2.2 -1.8 11.4 -9.2 20.5 -16.4 9.1 -7.3 17.4 -14 18.5 -14.9 1.6 -1.4 25.6 -20.8 31.5 -25.5 0.8 -0.7 3.9 -3.2 6.8 -5.5 l5.2 -4.4 0 -51.3 0 -51.4 2.4 -2.7 c3.1 -3.7 8.6 -3.9 11.6 -0.4 2 2.3 2 3.4 2 58.5 l0 56.2 -8.7 7 c-4.9 3.9 -14 11.2 -20.3 16.2 -6.3 5.1 -12.4 10 -13.5 11 -1.1 0.9 -6.5 5.3 -12 9.6 -5.5 4.4 -10.9 8.7 -12 9.7 -2.8 2.2 -11.7 9.4 -36.5 29.3 -26.6 21.3 -30.2 24.2 -70 56.2 -17.9 14.4 -40.1 32.4 -49.5 39.9 -9.3 7.5 -18.3 14.7 -20 16.1 -8.1 6.6 -35.9 28.9 -50.4 40.5 -7.4 6 -14.2 10.8 -15 10.8 -0.9 -0.1 -7.4 -4.8 -14.6 -10.6z m23.5 -2.4 c1.9 -1.4 4.8 -3.7 6.4 -5.1 3 -2.6 23.6 -19.2 48.1 -38.8 6.6 -5.3 12.9 -10.3 14 -11.2 1.1 -0.9 5.6 -4.6 10 -8.1 4.4 -3.6 16.6 -13.4 27.1 -21.9 10.5 -8.5 20.8 -16.7 22.9 -18.4 2 -1.6 7 -5.6 10.9 -8.8 3.9 -3.2 7.8 -6.4 8.6 -7 2.9 -2.3 27.5 -21.9 29.5 -23.5 1.1 -1 4 -3.3 6.5 -5.2 2.5 -1.9 4.7 -3.7 5 -4 0.3 -0.4 7.3 -6 15.5 -12.6 22.6 -18.1 36.7 -29.4 40.1 -32.3 1.7 -1.4 4.8 -3.9 6.9 -5.6 2.2 -1.6 7.8 -6.1 12.5 -9.9 4.7 -3.8 13.6 -11 19.8 -15.9 l11.2 -9.1 0 -51.9 c0 -51.6 -0.2 -55.7 -3.4 -55.7 -4 0 -4.1 1.4 -4.6 55.4 l-0.5 52.1 -19.2 15.5 c-24.6 20 -24.3 19.7 -27.7 22.3 -1.7 1.2 -4.4 3.4 -6 4.8 -3.2 2.7 -19.3 15.6 -45.1 36.3 -8.2 6.6 -15.5 12.5 -16.1 13.1 -0.7 0.5 -6.3 5 -12.5 9.9 -10.1 8 -22.6 18 -28.4 22.7 -1.1 1 -8.1 6.6 -15.5 12.5 -7.4 5.9 -13.9 11.4 -14.3 12.1 -0.4 0.7 -1.4 1.3 -2.2 1.3 -0.7 0 -1.5 0.4 -1.7 0.8 -0.1 0.4 -8.4 7.3 -18.3 15.2 -9.9 8 -18.6 15.1 -19.3 15.8 -0.8 0.7 -3 2.5 -5 4 -2 1.5 -4.6 3.5 -5.7 4.4 -1.1 0.9 -9.6 7.8 -19 15.3 -9.3 7.5 -17.8 14.3 -18.8 15.1 -15.4 12.7 -16.5 13.4 -20.6 13.4 -3.4 0 -5 -0.8 -10.3 -5.3 -3.5 -2.9 -10.8 -8.9 -16.3 -13.2 -5.5 -4.4 -10.6 -8.5 -11.3 -9.2 -0.7 -0.7 -4.1 -3.4 -7.5 -6 -3.4 -2.6 -6.4 -5 -6.7 -5.3 -0.3 -0.3 -6.3 -5.2 -13.3 -10.8 -7 -5.7 -13.5 -10.9 -14.5 -11.7 -4.2 -3.5 -34 -27.5 -39.2 -31.5 -11.8 -9.2 -26.5 -21.4 -26.8 -22.2 -0.2 -0.4 -1 -0.8 -1.8 -0.8 -0.8 0 -1.4 -0.3 -1.4 -0.8 0 -0.4 -3.3 -3.2 -7.2 -6.2 -4 -3 -7.5 -5.7 -7.8 -6 -0.3 -0.3 -5 -4.2 -10.5 -8.6 -5.5 -4.4 -10.9 -8.7 -12 -9.6 -3.5 -2.9 -18.4 -14.9 -44.8 -36.1 -14.2 -11.4 -26.5 -21.4 -27.5 -22.2 -0.9 -0.7 -9.3 -7.5 -18.7 -15 -9.3 -7.6 -17.3 -14.2 -17.7 -14.9 -0.4 -0.6 -0.8 -24 -0.8 -51.9 0 -33.1 -0.4 -51.5 -1 -52.8 -1.4 -2.4 -3.6 -2.4 -5 0 -0.6 1.3 -1 19.9 -1 53.5 l0 51.6 3.8 3.5 c3.4 3 8.2 6.9 25.2 20.5 1.9 1.6 6.5 5.2 10.1 8.2 8.1 6.5 55.8 44.8 57.9 46.4 0.8 0.7 4.4 3.6 8 6.6 3.6 2.9 9.2 7.4 12.5 10.1 3.3 2.6 9.6 7.5 13.9 11 4.3 3.4 9.7 7.8 12 9.8 2.3 1.9 5.1 4.2 6.3 5 1.2 0.8 4.8 3.7 7.9 6.5 3.2 2.7 8.1 6.7 10.9 8.9 2.9 2.2 15.3 12.1 27.5 22 12.3 9.9 25.9 20.9 30.4 24.4 4.5 3.5 8.3 6.7 8.6 7 0.3 0.4 2.5 2.2 5 4.1 2.5 1.9 4.7 3.7 5 4 0.3 0.3 2.5 2.1 5 4 2.5 1.9 4.7 3.7 5 4 0.3 0.3 5 4.1 10.5 8.5 5.4 4.4 16.2 13.1 23.8 19.2 l14 11.3 2.7 -2.3 c1.4 -1.2 4.2 -3.3 6 -4.7z"/>
  <path d="M341 733.1 c0 -0.6 1.3 -1.8 2.9 -2.7 3.8 -2.2 3 -4.1 -1.7 -4 -3.5 0.1 -3.7 -0.1 -4 -3.1 -0.3 -3.1 -0.1 -3.3 2.7 -3.3 2.8 0 3.1 -0.3 3.7 -4 0.6 -3.7 0.9 -4 3.9 -4 1.9 0 3.5 -0.3 3.7 -0.7 0.9 -2.1 7 -5.4 8.9 -4.8 1 0.4 4.2 -0.1 6.9 -1 4.1 -1.4 5 -2.1 5 -4 0 -1.6 1 -3 3 -4.2 1.7 -0.9 3 -2.6 3 -3.6 0 -1 0.5 -2.7 1.1 -3.8 0.8 -1.6 0.7 -2.5 -0.7 -4 -2 -2.2 -0.7 -4.6 2.8 -5.1 1.3 -0.2 2.5 -1.6 3.4 -4.3 1.5 -4.5 0.6 -6.5 -3.1 -6.5 -1.2 0 -3.4 -0.9 -4.8 -2 -1.4 -1.1 -3.1 -2 -3.9 -2 -0.7 0 -1.9 -0.9 -2.5 -1.9 -1.1 -1.7 -1.7 -1.8 -5.3 -0.9 -3.6 0.9 -4.5 0.8 -6.8 -0.9 -1.8 -1.4 -2.7 -3 -2.8 -4.9 0 -1.6 -0.4 -3.7 -0.9 -4.7 -0.9 -2.1 0.1 -3.3 3 -3.9 2.1 -0.4 2.6 -3.6 1 -7 -0.6 -1.6 -0.1 -1.8 3.4 -1.8 2.6 0 4.4 0.5 4.7 1.3 0.4 1.1 1.7 1.2 6.2 0.5 3.1 -0.5 7.2 -0.6 9 -0.3 3.1 0.6 4.4 -0.6 2.2 -2 -0.5 -0.3 -1 -1.4 -1 -2.4 0 -1.3 1 -2 3.3 -2.4 1.7 -0.3 5.2 -1.2 7.7 -2 2.5 -0.9 5.7 -1.8 7.3 -2.1 2.2 -0.5 2.7 -1.2 2.7 -3.6 0 -2 0.5 -3 1.5 -3 1.8 0 8.8 -3.2 9.6 -4.4 0.4 -0.5 1.2 -0.5 1.8 -0.1 1.8 1.1 12.5 1.4 13.7 0.4 0.7 -0.6 1 -3.2 0.8 -6.8 l-0.3 -5.8 11.9 -1.3 12 -1.3 0.6 -3.4 c0.3 -1.8 1 -3.6 1.5 -3.9 0.5 -0.3 0.9 -1.7 0.9 -3.2 0 -2.1 0.9 -3.1 3.6 -4.4 1.9 -1 4.6 -1.8 5.9 -1.8 1.5 0 2.6 -0.7 3 -1.9 1 -3.1 4.3 -3.6 7.6 -1.2 1.5 1.2 3.3 2.1 3.9 2.1 0.5 0 1 1.4 1 3 0 2.8 0.2 3 4 3 3.3 0 4.2 0.4 4.9 2.3 0.5 1.2 0.5 2.7 0.1 3.2 -0.4 0.6 -1 3.5 -1.3 6.5 -0.6 6.4 1.6 12.3 4.8 12.8 1.1 0.2 2.9 1.2 4 2.2 1.1 1 3.1 2 4.5 2.2 1.7 0.2 2.6 1 2.8 2.6 0.4 2.8 1 2.8 3.7 -0.4 2.9 -3.4 5.2 -2.6 7.2 2.5 1.7 4.3 3.5 5.2 9.1 4.5 8.1 -1.1 8.3 -1.2 7.6 -4.2 -1.2 -5.1 -3.2 -7.2 -6.8 -7.2 -3.8 0 -8.3 -3 -7.2 -4.8 0.4 -0.7 1.7 -1.2 2.8 -1.2 1.2 0 3.6 -0.5 5.4 -1.2 2.5 -0.9 4.4 -0.8 9.5 0.6 8.2 2.3 24.9 3.1 31.2 1.5 5 -1.2 10.6 -5.5 12 -9.3 0.5 -1.3 1.2 -1.6 2.5 -1 0.9 0.5 3.8 0.9 6.4 0.9 3.6 0 5.2 -0.5 6.8 -2.3 1.4 -1.5 3.2 -2.2 5.8 -2.2 6.6 0 12 -2.3 15.4 -6.4 1.7 -2.1 4.6 -4.5 6.5 -5.2 1.8 -0.8 3.3 -2.1 3.3 -2.9 0 -1.5 15.7 -10.2 20.3 -11.2 2.7 -0.6 2.7 -0.5 1.4 2.6 -0.8 1.8 -3.4 5.5 -5.8 8.3 -2.4 2.7 -5.2 6.4 -6.1 8.1 -2.8 4.9 -6.9 9.7 -8.4 9.7 -0.7 0 -4.2 4.4 -7.7 9.8 -5.1 7.7 -7.9 10.8 -13.5 15 -3.9 2.8 -7.5 5.2 -8 5.2 -0.6 0 -1.3 0.8 -1.7 1.9 -0.3 1 -1.4 2.6 -2.5 3.6 -1.1 1 -2 2.8 -2 4.1 0 2.9 -2.5 5.4 -5.6 5.4 -1.7 0 -6 3.7 -16.1 14 -7.6 7.8 -14 14.8 -14.1 15.6 -0.2 0.8 -1.5 1.9 -2.8 2.5 -1.4 0.5 -2.3 1.3 -2 1.7 1.2 2 -1.4 3.6 -5.4 3.4 -2.3 -0.2 -4.7 0.1 -5.3 0.6 -0.7 0.5 -2.2 1.3 -3.4 1.6 -1.8 0.6 -2.3 0.3 -2.3 -1.1 0 -1.5 -1.2 -2.2 -5.8 -3.1 -8 -1.6 -8.7 -1.6 -10 1.3 -0.9 2 -0.9 2.5 0.3 2.5 1.4 0 3.1 3.7 2.1 4.7 -0.3 0.4 -1.6 0.2 -2.9 -0.4 -7.8 -3.5 -11.7 -3.4 -15.9 0.4 -1 0.9 -1.8 1.2 -1.9 0.7 -0.1 -0.5 -0.4 0.2 -0.8 1.6 -0.7 2.5 -3.2 3 -7.1 1.3 -0.8 -0.3 -2.6 -0.5 -3.9 -0.4 -1.3 0.2 -2.8 -0.3 -3.2 -1.1 -0.6 -0.9 -0.9 -0.9 -0.9 -0.1 0 0.6 0.4 1.4 1 1.8 1.3 0.8 0.1 3.5 -1.6 3.5 -0.8 0 -2.3 0.4 -3.4 1 -1.1 0.6 -2.9 1.4 -4 2 -1.1 0.6 -2.9 1 -4 1 -1.3 0 -2 0.7 -2 1.9 0 1 -0.7 2.2 -1.6 2.5 -2.4 0.9 -3.4 0.7 -3.4 -0.8 0 -0.7 -0.7 -1.9 -1.5 -2.6 -1.2 -1 -1.9 -1 -3.3 0.2 -0.9 0.7 -3 2 -4.7 2.7 -1.6 0.7 -3.8 1.7 -4.7 2.2 -2.4 1.2 -2.8 1.1 -2.8 -0.6 0 -0.8 0.5 -1.5 1.1 -1.5 0.5 0 0.7 -0.5 0.3 -1.1 -0.3 -0.6 -1.7 -0.9 -3 -0.6 -1.3 0.2 -2.4 0.1 -2.4 -0.3 0 -1.4 -4.1 -0.3 -6.2 1.8 -2.2 1.9 -2.6 2.2 -4.5 2.2 -0.5 0 -0.2 0.4 0.5 0.8 0.7 0.5 -1.9 0.8 -5.8 0.6 -5.6 -0.1 -7.5 0.2 -9.4 1.7 -1.3 1.1 -2.8 1.9 -3.2 1.9 -0.4 0 -2.3 1.8 -4.1 4 -5.4 6.2 -6.7 6.6 -9.4 2.6 -1.3 -1.9 -2.8 -3.2 -3.4 -2.8 -0.5 0.3 -3 0.8 -5.5 0.9 -6.6 0.5 -9 1.2 -9 2.7 0 0.7 -1.2 1.9 -2.6 2.6 -2 1.1 -2.9 1.2 -4.4 0.2 -2.6 -1.6 -3.3 -1.5 -2.7 0.2 0.4 1.1 -0.7 1.6 -4.6 2.1 -2.9 0.4 -5.6 1.1 -6.2 1.5 -0.5 0.4 -2.5 1.1 -4.2 1.5 -2.5 0.5 -3.3 0.3 -3.3 -0.7 0 -2.3 -3.8 -1.9 -4.6 0.5 -0.4 1.2 -1.2 2.5 -1.8 2.9 -1.6 1.1 -12.6 1 -12.6 -0.1z"/>
  <path d="M398 506 c-2.5 -0.4 -7.2 -1.8 -10.5 -3 -10.4 -3.9 -22.7 -8 -26.2 -8.6 -4 -0.7 -4 1.3 0.2 -21.9 1.3 -7.1 2.9 -17.2 3.5 -22.2 l1.3 -9.3 3.3 -0.6 c7.1 -1.3 7.8 -0.5 9.1 9.8 2.4 20.2 11 35.3 23.7 41.6 5.6 2.8 16.3 3 22.1 0.3 7.4 -3.4 10.6 -7.7 12.6 -17.3 0.7 -3.2 1.6 -4.8 2.6 -4.8 1.3 0 1.5 1.1 1.1 6.4 -1.2 14.6 -10.3 21.6 -28 21.6 -9.8 0 -15.8 -2.6 -22.9 -9.9 -8.8 -9 -12.9 -18.4 -14.9 -34.6 -1.8 -14 -4.9 -12.5 -6.9 3.2 -0.7 5.4 -2.1 14.3 -3.2 19.8 -2.8 14.8 -3.3 13.6 6.9 16.4 4.8 1.3 10.3 3.2 12.3 4.2 5.4 2.7 17.7 5.9 22.6 5.9 3.6 0 4.3 0.3 4.3 2 0 1.7 -0.6 2 -4.2 1.9 -2.4 -0.1 -6.3 -0.5 -8.8 -0.9z"/>
  <path d="M413 505.1 c0 -1.9 0.5 -2.1 5.8 -2.1 7.9 0 20.1 -3.2 29.2 -7.7 10.1 -4.9 20.4 -15.1 25.1 -24.8 3.2 -6.6 3.4 -7.6 3.4 -17.5 0 -9 -0.4 -11.4 -2.6 -16.6 -3.9 -9.2 -12.1 -19.3 -30.1 -36.9 -18.8 -18.2 -20.8 -21.6 -20.8 -34.3 0 -11.8 3.3 -18.9 10.7 -23 7.9 -4.3 22.6 -3.9 27.4 0.9 1 1 2.4 1.9 2.9 1.9 0.6 0 1 0.4 1 1 0 0.5 1.2 2.1 2.6 3.5 5 5 10.4 20.4 10.4 29.8 0 4.4 0.2 4.8 2.3 4.5 2.1 -0.3 2.3 -1.2 4.3 -17.3 1.1 -9.3 2.4 -18.6 2.8 -20.7 0.6 -3.5 0.5 -3.7 -2.6 -4.3 -1.8 -0.4 -9.8 -2.3 -17.8 -4.2 -13.6 -3.3 -15.2 -3.5 -26.5 -3 -9.2 0.4 -13.7 1.1 -19.2 3 -8.1 2.8 -14.9 6.4 -17.7 9.6 -1.1 1.2 -2.4 2.1 -3 2.1 -0.6 0 -1.6 0.8 -2.1 1.8 -0.6 1 -2.7 4.4 -4.7 7.4 -8.6 12.8 -10 26.5 -4 39.1 3.1 6.6 12.3 18.2 22.2 28.3 3.3 3.3 6 6.6 6 7.2 0 0.7 0.7 1.2 1.5 1.2 0.8 0 1.5 0.9 1.5 2 0 1.2 0.7 2 1.6 2 2.7 0 12.3 10.2 15.5 16.2 3.3 6.4 4.1 14.8 1.4 14.8 -0.8 0 -1.7 -1.4 -2.1 -3.7 -1.4 -7.6 -5.1 -12.8 -21.1 -28.8 -23.8 -24 -29.6 -31.8 -32.8 -44 -2.9 -11.2 -1.3 -23.4 4.3 -33.9 3.7 -7.1 15.5 -18.6 22.2 -21.8 10.2 -4.8 18.1 -6.2 34.5 -6.2 13.7 0.1 16 0.3 26.2 3.2 6.1 1.7 13.1 3.4 15.5 3.8 6.9 0.9 6.7 0.5 5.2 8.1 -0.7 3.7 -2 13.1 -2.9 20.8 -2.5 21.6 -2.1 20.3 -5.8 21.3 -1.8 0.5 -4.3 0.6 -5.7 0.2 -2.3 -0.6 -2.5 -1.2 -3.1 -8.6 -1.2 -14.4 -7.9 -27.9 -16.9 -33.6 -4 -2.6 -5.2 -2.9 -10.7 -2.6 -11.5 0.7 -18.2 7.9 -19.1 20.5 -0.7 10.5 2 14.8 20.9 33.1 21.6 21.1 28.3 30.2 31.4 43.4 2.7 11.4 1.6 24.8 -2.8 33.3 -9.9 19.6 -29.1 31.2 -54.8 33.1 -8.6 0.7 -8.9 0.6 -8.9 -1.5z"/>
  <path d="M552.4 506 c-2.4 -0.9 -2.8 -3.3 -4 -21.7 -0.6 -9.9 -0.6 -10.3 1.3 -10.3 1.9 0 2.1 0.9 2.8 13.3 0.4 7.2 1.2 13.8 1.7 14.5 0.6 0.6 2.3 1.2 3.9 1.2 3.1 0 0 3.9 40.7 -51 9.6 -12.9 17.9 -23.9 18.6 -24.5 0.6 -0.5 1.7 -2.2 2.5 -3.7 0.8 -1.5 2.9 -4.4 4.8 -6.4 1.8 -2 3.3 -3.9 3.3 -4.2 0 -1 15.4 -21.2 16.2 -21.2 0.4 0 0.8 -0.5 0.8 -1.1 0 -1.5 15.2 -21.9 16.2 -21.9 0.4 0 0.8 -0.6 0.8 -1.2 0 -1.9 7.9 -10.8 9.6 -10.8 0.8 0 1.4 -0.7 1.4 -1.5 0 -0.8 0.7 -1.5 1.5 -1.5 0.8 0 1.5 -0.6 1.5 -1.4 0 -1.9 4.6 -5.5 7.9 -6.3 1.4 -0.3 2.8 -0.9 3.1 -1.4 0.3 -0.4 3.6 -1.3 7.5 -2.1 4.5 -0.9 7.1 -1.9 7.3 -2.8 0.2 -1.3 -3.6 -1.5 -26.5 -1.5 -24.1 0 -26.8 0.2 -27.1 1.7 -0.2 1.2 0.7 1.8 3.9 2.3 6.1 1 7.9 3.4 7.9 10.2 0 5.9 -3 14 -5.6 15 -0.8 0.3 -1.4 1 -1.4 1.5 0 1.3 -9.3 13.8 -10.2 13.8 -0.5 0 -0.8 0.4 -0.8 1 0 1.5 -7 11 -8.1 11 -0.5 0 -0.9 0.6 -0.9 1.3 0 0.7 -1.3 2.7 -3 4.5 -1.6 1.8 -3 3.6 -3 4 0 0.4 -1.3 2.2 -3 4 -1.6 1.8 -3 3.6 -3 3.9 0 1 -9.4 13.3 -10.2 13.3 -0.4 0 -0.8 0.6 -0.8 1.3 0 0.7 -1.3 2.7 -3 4.5 -1.6 1.8 -3 3.7 -3 4.2 0 0.4 -1.3 2.2 -2.9 3.9 -1.6 1.7 -3.1 3.8 -3.5 4.6 -0.3 0.9 -1.8 1.5 -4 1.5 -4.2 0 -4.2 -0.3 -5.2 -22.7 -0.6 -14.5 -0.5 -16.3 0.9 -16.3 2 0 2.4 2.3 3.4 21 l0.8 14.4 8.5 -11.4 c15.1 -20.5 40.2 -54.4 44.5 -60 7.7 -10.1 9.7 -13.7 9.7 -17.6 0 -4.6 -1.7 -6.2 -7.3 -7.2 -4.3 -0.7 -4.4 -0.8 -4.7 -5 -0.2 -2.4 0.1 -4.9 0.7 -5.6 0.8 -0.9 8.2 -1.2 30.8 -1.1 l29.8 0.1 0.3 3.7 c0.5 6 -0.8 7.2 -9.2 8.5 -13.5 2.1 -19.8 7.8 -42.6 38.8 -5.1 7.1 -17.1 23.3 -26.5 35.9 -18.5 24.8 -31.3 42.1 -49.3 66.5 -6.3 8.5 -12.3 16.3 -13.4 17.3 -2.2 1.8 -8.7 2.2 -12.4 0.7z"/>
  <path d="M70.7 502.3 c-1.4 -1.3 -0.6 -6.1 1.3 -8.5 1.4 -1.9 3.3 -2.7 6.9 -3.2 6.1 -0.8 11.1 -2.8 13.2 -5.3 3.8 -4.4 3.4 -2.9 23.4 -88.1 4.7 -19.9 8.5 -38.3 8.5 -40.7 0 -5.8 -2.2 -8 -9.7 -9.5 -3.2 -0.7 -6.4 -1.4 -7 -1.6 -1.8 -0.5 -1.6 -6.5 0.3 -9.2 1.4 -2 2.3 -2.2 12.2 -2.2 11.9 0 15.2 0.6 15.2 2.6 0 1.1 -2.3 1.4 -11.3 1.4 -10.6 0 -13.7 0.7 -13.7 3.1 0 0.4 3.4 1.4 7.5 2.4 5.3 1.1 7.9 2.3 9 3.8 2.4 3.4 1.8 13.8 -1.4 27.8 -8.3 36 -23.4 99 -24.6 103.4 -3.1 10.4 -6.2 13.2 -17 15.5 -6.1 1.3 -8.5 2.5 -8.5 4.1 0 0.5 8.6 0.9 19 0.9 15.5 0 19 0.3 19 1.4 0 0.7 -1 1.6 -2.2 2 -3.1 0.8 -39.3 0.8 -40.1 -0.1z"/>
  <path d="M190.8 502.3 c-1 -0.2 -1.8 -1.1 -1.8 -1.9 0 -1.1 2.7 -1.4 14.9 -1.4 l14.9 0 1.7 -7.7 c0.9 -4.3 3.5 -15.2 5.6 -24.2 2.2 -9 3.8 -16.6 3.5 -16.8 -1.2 -1.2 -3.2 0.7 -4.5 4.3 -2.7 8 -17.2 26.4 -20.8 26.4 -0.7 0 -1.3 0.4 -1.3 1 0 1.6 -7.3 5.7 -14.2 8.1 -4.7 1.6 -9.7 2.3 -19.4 2.7 -23.5 0.9 -27.4 -0.8 -27.4 -12.3 0 -6.6 0.6 -9.5 8.3 -42.5 l4.4 -18.5 3.6 -0.3 c2.8 -0.2 3.7 0.1 3.7 1.2 0 0.9 -0.6 1.6 -1.4 1.6 -0.8 0 -1.7 0.4 -2 0.9 -1.5 2.3 -12.6 52.7 -12.6 56.9 0 8.2 1.2 8.7 20.4 8.7 l16.1 0 7.8 -3.8 c13 -6.4 27.6 -22.2 31.6 -34.4 1.5 -4.5 3.5 -5.6 8.2 -4.6 5.4 1.1 5.5 1.8 0.5 22 -2.5 10.4 -5.4 22.4 -6.4 26.8 l-1.8 8 -14.9 0.1 c-8.3 0.1 -15.8 0 -16.7 -0.3z"/>
  <path d="M675.7 502.3 c-1.1 -1 -0.8 -5.2 0.4 -7.6 1.5 -2.8 2.8 -3.7 5.5 -3.7 4.6 0 12.9 -3.3 15.5 -6.1 1.5 -1.7 3.5 -5.3 4.3 -8.2 2.8 -9.7 25.9 -108.1 26.9 -114.8 1.7 -11 0.3 -13.1 -11 -15.3 -5.4 -1.1 -5.8 -1.4 -6.1 -4.2 -0.2 -1.7 0.2 -4.2 0.7 -5.7 1 -2.7 1.1 -2.7 11.3 -2.7 11.5 0 14.8 0.6 14.8 2.6 0 1 -2.6 1.4 -11.2 1.6 -9.7 0.3 -11.3 0.5 -11.6 2 -0.3 1.3 1 1.9 5.9 2.9 8.5 1.7 11.2 4.3 11.7 11.7 0.3 4.7 -1.3 13.1 -9.3 46.7 -5.3 22.6 -10.6 44.8 -11.6 49.5 -4.6 20.4 -8.1 32.8 -10.4 36.2 -2.4 3.7 -7 5.8 -15.7 7.4 -2 0.3 -4.4 1.5 -5.4 2.5 -1.7 1.9 -1.4 1.9 11.4 1.9 10.6 0 13.2 0.3 13.2 1.4 0 0.7 -1 1.6 -2.2 2 -3.1 0.8 -26.3 0.8 -27.1 -0.1z"/>
  <path d="M736.8 502.3 c-1 -0.2 -1.8 -1.1 -1.8 -1.9 0 -1.1 2.3 -1.4 12.5 -1.4 11 0 12.5 -0.2 13.4 -1.8 0.9 -1.7 0.4 -2 -5 -3 -7.1 -1.3 -8.9 -2.9 -8.9 -7.6 0 -4.5 2.5 -4.9 3.5 -0.6 0.5 2.3 1.4 3.2 4.3 4 2 0.5 4.9 1 6.3 1 3.6 0 5.3 2.3 4.5 6.2 -1.1 5.6 -1.7 5.8 -15 5.7 -6.6 -0.1 -12.9 -0.3 -13.8 -0.6z"/>
  <path d="M782.5 500.7 c-0.7 -2.5 0.7 -7.1 2.4 -8.2 0.6 -0.3 3.7 -1.3 6.8 -2.1 9.6 -2.5 12.6 -6.7 16.2 -22.4 1.2 -5.2 3.8 -16.2 5.7 -24.5 1.9 -8.2 3.7 -16 3.9 -17.2 0.4 -1.8 0.1 -2.3 -1.4 -2.3 -1.4 0 -1.9 -0.5 -1.5 -1.5 0.4 -0.9 1.9 -1.5 4 -1.5 3 0 3.4 0.3 3.4 2.5 0 2.2 -3.6 18.6 -10.6 47.4 -4 16.7 -7 20.9 -16.7 23.1 -5.3 1.3 -7.7 2.6 -7.7 4.1 0 0.5 5.4 0.9 12 0.9 9.6 0 12 0.3 12 1.4 0 2 -3.3 2.6 -16.2 2.6 -11.4 0 -11.8 -0.1 -12.3 -2.3z"/>
  <path d="M840.8 502.3 c-1 -0.2 -1.8 -1.1 -1.8 -1.9 0 -1.1 2.6 -1.4 14.5 -1.4 8 0 14.5 -0.2 14.5 -0.4 0 -0.2 0.2 -1.1 0.6 -1.9 0.4 -1.1 -0.6 -1.6 -3.8 -2.1 -7.5 -1.2 -10.8 -2.6 -12.3 -5.6 -2.5 -4.8 -1.8 -14.5 1.9 -30.2 6.3 -25.9 9.5 -39.6 15.7 -65.6 6.5 -27.7 9.3 -38.2 11.5 -42.4 1.9 -3.6 6.8 -6.4 13.9 -7.8 6 -1.2 8.5 -2.4 8.5 -4.1 0 -0.5 -4.3 -0.9 -9.5 -0.9 -7.4 0 -9.5 -0.3 -9.5 -1.4 0 -2 3.2 -2.6 13.8 -2.6 l9.2 0 0 3.9 c0 5.5 -2.3 7.6 -9.8 8.9 -11.9 2.1 -14.1 5.5 -20.1 30.7 -14 58.3 -23 96.5 -23.6 100.2 -0.5 2.9 -0.2 5 1 7.3 1.8 3.5 4.7 4.9 12 5.9 4.6 0.5 5 0.8 5.3 3.5 0.2 1.5 -0.2 4.1 -0.8 5.7 l-1.2 2.9 -14.2 -0.1 c-7.7 -0.1 -14.9 -0.3 -15.8 -0.6z"/>
  <path d="M747 476 c0 -1.6 2.3 -12.8 5.1 -24.7 2.8 -12 5.6 -23.7 6.1 -26 0.9 -4 1.2 -4.3 4.4 -4.3 3.6 0 4.9 2.4 1.6 3.2 -1.3 0.4 -2.3 3 -4 10.4 -6.9 30.9 -10.5 44.4 -11.8 44.4 -0.9 0 -1.4 -1.1 -1.4 -3z"/>
  <path d="M547.6 468.8 c-0.6 -3.7 -3.6 -44.1 -3.6 -48.2 0 -1.8 0.5 -2.6 1.8 -2.6 1.6 0 1.9 2.3 3.5 24.3 1 13.3 1.7 25.4 1.7 27 0 3.9 -2.8 3.5 -3.4 -0.5z"/>
  <path d="M188.6 448.8 c-0.3 -0.7 -0.7 -4.3 -1 -8 -0.9 -11.5 -4.9 -16.1 -15.3 -17.8 -3.2 -0.6 -5.9 -1 -6 -1 -0.2 0 -0.3 -0.7 -0.3 -1.5 0 -2 8.9 -2 14.3 -0.1 7.6 2.8 10.3 7.1 11.3 18.5 0.5 5.1 1.1 7.1 2.1 7.1 1.8 0 2.7 -2.6 4.7 -14 0.9 -5.2 3.5 -16.7 5.7 -25.4 2.2 -8.7 3.7 -16.1 3.5 -16.3 -1 -1 -2.6 1 -4.6 5.4 -3.1 7.1 -6.6 11.1 -12.3 14 -4.7 2.4 -6.4 2.7 -18.9 3.1 l-13.8 0.4 0 -3.8 c0.1 -5.5 11.3 -52.4 13.7 -57.1 2.3 -4.4 7.2 -7.3 12.6 -7.3 5.1 0 4.8 2.3 -0.5 3.9 -2.4 0.7 -4.9 1.8 -5.6 2.4 -2.4 1.9 -4.9 8.1 -7.1 17.2 -1.1 5 -3.7 15.7 -5.6 23.8 -1.9 8.1 -3.5 15.2 -3.5 15.7 0 0.6 3.9 1 8.8 1 15.2 0 22.8 -4.2 28.2 -15.5 2.4 -5.1 3.6 -6.5 5.9 -7 3.2 -0.7 8.1 0.3 8.1 1.6 0 0.5 -2 8.9 -4.5 18.6 -2.5 9.8 -5.2 21.9 -6 26.8 -2 11.3 -3.2 15.2 -5.1 15.9 -2.8 1.1 -8.5 0.6 -8.8 -0.6z"/>
  <path d="M269.9 429.4 c-1.7 -2.1 -2.4 -14 -1 -17.6 0.7 -1.9 1.8 -2.8 3.2 -2.8 1.8 0 2 0.4 1.4 2.8 -1.4 5.5 -1.7 11 -0.6 13.1 1.1 2.1 1.7 2.1 30.2 2.1 l28.9 0 1.1 -2.7 c1.2 -3.2 0.5 -10.6 -1 -11.1 -0.6 -0.2 -1.1 -1.2 -1.1 -2.3 0 -1.4 0.7 -1.9 2.5 -1.9 2 0 2.6 0.7 3.6 4.3 1.4 5.4 0.4 14.8 -1.8 16.5 -1.3 0.9 -9.5 1.2 -32.9 1.2 -27.5 0 -31.3 -0.2 -32.5 -1.6z"/>
  <path d="M543.6 412.8 c-0.6 -4.1 -2.6 -29.3 -2.6 -33 0 -2 0.5 -2.8 1.8 -2.8 1.6 0 1.9 1.7 3 16.3 1.6 20.9 1.6 22.7 -0.3 22.7 -0.8 0 -1.6 -1.3 -1.9 -3.2z"/>
  <path d="M762 411.5 c0 -2 1.3 -8.9 2.9 -15.3 1.6 -6.4 4.3 -17.7 6.1 -25.1 4 -16.7 6.2 -22.1 9 -22.1 1.3 0 2 -0.7 2 -1.9 0 -2 1.6 -2.7 10.8 -5.1 2.5 -0.6 4.2 -1.7 4.2 -2.5 0 -1.2 -1.8 -1.5 -9 -1.5 -7 0 -9 -0.3 -9 -1.4 0 -1.9 3.2 -2.6 13.3 -2.6 l8.7 0 0 3.8 c-0.1 5.3 -2.5 7.7 -9.5 9.2 -7.5 1.6 -10.7 4.8 -13.5 13.8 -2.1 6.8 -12 47.5 -12 49.3 0 0.6 10.1 0.8 27.7 0.7 l27.7 -0.3 5.7 -23.5 c6.4 -26.2 7.3 -34.5 3.9 -37.5 -1.1 -1 -4.3 -2.3 -7.2 -3 -5 -1.1 -5.3 -1.4 -5.6 -4.4 -0.2 -1.8 0.4 -4.3 1.3 -5.7 1.4 -2.2 2.1 -2.4 10.3 -2.4 10 0 13.2 0.7 13.2 2.6 0 1.1 -2.1 1.4 -9.9 1.4 -8.1 0 -10 0.3 -10.5 1.6 -0.3 0.9 -0.6 1.7 -0.6 1.9 0 0.2 2.4 0.9 5.4 1.5 7.3 1.5 9 3.6 9.4 11.8 0.4 6.6 -2.4 20.4 -10 50.7 l-2.3 9 -31.2 0.3 -31.3 0.2 0 -3.5z"/>
  <path d="M587 397 c0 -7 0.3 -9 1.4 -9 1.8 0 2.6 3.2 2.6 11.3 0 6 -0.2 6.7 -2 6.7 -1.9 0 -2 -0.7 -2 -9z"/>
  <path d="M230.6 388.4 c-0.9 -0.8 -1.6 -2.9 -1.6 -4.5 0 -4.5 -3.7 -14.5 -7.5 -20.5 -4.2 -6.5 -11.8 -12.7 -17.9 -14.4 -5.2 -1.4 -6.3 -4 -1.8 -4 4.5 0 11.5 2.8 15.7 6.2 7.4 6.1 15.5 22.2 15.5 30.8 0 3.1 2.8 4.9 4.2 2.8 0.4 -0.7 0.8 -5.1 0.8 -9.8 0 -8.8 1.6 -29.5 2.6 -34.2 l0.6 -2.8 -7.6 0 c-5.8 0 -7.6 -0.3 -7.6 -1.4 0 -1.9 3.2 -2.6 11.8 -2.6 8.3 0 7.9 -0.9 6.1 12 -0.5 4.1 -1.3 15.3 -1.8 24.9 -0.6 13 -1.2 17.5 -2.2 18.2 -2.3 1.4 -7.6 1 -9.3 -0.7z"/>
  <path d="M586 375 c0 -7 0.3 -9 1.4 -9 1.8 0 2.6 3.2 2.6 11.3 0 6 -0.2 6.7 -2 6.7 -1.9 0 -2 -0.7 -2 -9z"/>
  <path d="M540.6 372.8 c-0.3 -1.8 -0.7 -5.6 -1 -8.4 -0.6 -6.5 -3.1 -12.5 -6.1 -14.7 -1.3 -0.9 -5.3 -2.3 -8.7 -3 -5.8 -1.2 -6.3 -1.5 -6.6 -4.1 -0.2 -1.5 0.2 -4.1 0.8 -5.7 l1.2 -2.9 9.2 0 c10.4 0 13.6 0.6 13.6 2.6 0 1.1 -2.2 1.4 -10.5 1.4 -9.7 0 -10.5 0.2 -10.5 1.9 0 1.5 1 2.1 4.1 2.6 12.6 2.1 16.5 7.5 17.6 24 0.5 8.3 0.4 9.5 -1 9.5 -1 0 -1.8 -1.1 -2.1 -3.2z"/>
  <path d="M586.3 355.9 c0.7 -8.5 3.8 -11.3 13.9 -12.9 9.3 -1.4 9.8 -1.6 9.8 -3.5 0 -1.2 -1.7 -1.5 -10.5 -1.5 -8.5 0 -10.5 -0.3 -10.5 -1.5 0 -1.9 4.7 -2.7 15.5 -2.3 l9 0.3 0.3 3.7 c0.5 6.1 -0.8 7.4 -8.3 8.1 -11.2 1.1 -14.2 3.4 -16 12.5 -0.4 2 -1.3 3.2 -2.2 3.2 -1.3 0 -1.5 -1 -1 -6.1z"/>
  <path d="M145 337 c0 -2 0.7 -2 33 -2 32.3 0 33 0 33 2 0 2 -0.7 2 -33 2 -32.3 0 -33 0 -33 -2z"/>
  <path d="M546 337 c0 -1.9 0.7 -2 19 -2 18.3 0 19 0.1 19 2 0 1.9 -0.7 2 -19 2 -18.3 0 -19 -0.1 -19 -2z"/>
  <path d="M741 337 c0 -1.9 0.7 -2 17.5 -2 16.8 0 17.5 0.1 17.5 2 0 1.9 -0.7 2 -17.5 2 -16.8 0 -17.5 -0.1 -17.5 -2z"/>
  <path d="M847 337 c0 -1.9 0.7 -2 18 -2 17.3 0 18 0.1 18 2 0 1.9 -0.7 2 -18 2 -17.3 0 -18 -0.1 -18 -2z"/>
  <path d="M182.2 286.7 l-2.2 -2.3 0 -123.5 0 -123.4 69.9 -0.3 69.9 -0.2 2.1 2.6 c4.4 5.6 0.8 13.4 -6.1 13.4 -1.8 0 -29.4 0.1 -61.3 0.3 l-58 0.2 -0.5 115.3 -0.5 115.4 -2.8 2.4 c-3.6 3 -7.7 3.1 -10.5 0.1z m9 -121.6 l0.3 -115.6 62.2 -0.5 c57.5 -0.5 62.4 -0.6 64 -2.3 1.6 -1.6 1.6 -1.8 0 -3.5 -1.6 -1.6 -6.5 -1.7 -67.7 -2 l-66 -0.2 0 119.7 c0 110.1 0.1 119.8 1.7 121.5 1.5 1.7 1.7 1.7 3.5 0.2 1.7 -1.6 1.8 -6.7 2 -117.3z"/>
  <path d="M784.4 288 c-5.7 -2.3 -5.4 4.7 -5.4 -119.6 0 -103.2 -0.2 -114.2 -1.6 -114.8 -0.9 -0.3 -25.1 -0.6 -53.9 -0.6 -28.8 0 -53.1 -0.3 -54 -0.6 -1.7 -0.7 -4.5 -5.4 -4.5 -7.8 0 -0.8 1.2 -2.8 2.6 -4.5 l2.6 -3.1 62.4 0 62.4 0 0 122.9 c0 67.6 -0.3 123.7 -0.6 124.6 -0.6 1.5 -5.4 4.6 -7.1 4.4 -0.4 0 -1.8 -0.4 -2.9 -0.9z m6.6 -127.6 l0 -119.4 -58.1 0 c-38.1 0 -58.7 0.4 -60 1 -2.5 1.4 -2.5 4.6 0 6 1.3 0.6 20.7 1 56 1 l54.1 0 0 114.9 0 114.8 2.2 2.8 2.2 2.8 1.8 -2.3 c1.7 -2.1 1.8 -7.6 1.8 -121.6z"/>
  <path d="M627.5 267.4 c-7.6 -1.8 -10 -2.9 -15.7 -7.6 -4.8 -3.9 -7.4 -5.3 -13.1 -7.2 -1.1 -0.3 -2.1 -1.5 -2.4 -2.6 -0.6 -2.4 -1.2 -2.4 -7.9 -0.6 -4.7 1.2 -5.3 1.2 -9.2 -1 -4.1 -2.3 -4.1 -2.3 -9.2 -0.6 l-5.2 1.8 3.3 3.2 c3.4 3.3 6.3 4.6 9 4 0.8 -0.2 1.4 0.4 1.4 1.2 0 1 -1.2 1.6 -3.2 1.8 -2.4 0.2 -5.1 -0.8 -10.2 -3.8 -6.2 -3.7 -6.9 -4.4 -7.5 -8 -0.6 -3.8 -0.7 -3.9 -3.9 -3.4 -1.7 0.3 -4.6 1 -6.4 1.5 -1.7 0.6 -4.8 0.7 -6.7 0.4 -4 -0.8 -9 1.2 -19 7.7 -5.9 3.8 -8.9 4.5 -11.5 2.9 -1.1 -0.7 -0.7 -1.3 1.7 -2.5 1.7 -0.9 3.6 -1.6 4.2 -1.6 1.6 0 7.8 -5.9 10.1 -9.7 2 -3.1 2.4 -3.3 7.9 -3.3 4.4 0 6.3 -0.5 8.1 -2.1 l2.4 -2 -4 0.6 c-2.2 0.3 -6.7 1 -10.1 1.7 -10.6 1.9 -15.6 -0.5 -19.7 -9.4 -1.8 -4 -0.8 -5.1 2.2 -2.4 0.9 0.8 3.7 2 6.2 2.7 4 1.1 5.3 1 12 -1.2 6.8 -2.1 9.2 -2.4 28.4 -2.5 14.4 -0.1 24 -0.6 30.5 -1.7 11.4 -2 16.8 -2.3 23.7 -1.2 4.8 0.7 5.2 0.6 6.8 -1.9 1.9 -2.8 3.5 -3.4 3.5 -1.3 0 0.8 2.6 2.2 5.7 3.3 3.1 1 7.4 3.4 9.6 5.2 2.1 1.7 4.7 3.2 5.6 3.2 2.9 0 3.2 1.2 0.9 3.7 -1.8 1.9 -3.1 2.3 -8.6 2.3 -5.7 0 -6.8 0.3 -9.9 3 l-3.4 3 6.2 0 c5.6 0 9.9 1.1 21.1 5.2 1.5 0.6 2.5 1.4 2.2 1.9 -0.8 1.4 -5.8 1.1 -9.7 -0.6 -4.7 -2 -12.5 -1.9 -17.3 0.1 -2.5 1 -5.5 1.4 -8.6 1.2 -2.6 -0.3 -4.8 -0.4 -4.8 -0.2 0 0.2 1.9 2.3 4.3 4.7 5 5.2 8.8 7.3 15.7 8.8 2.9 0.6 4.9 1.6 4.7 2.2 -0.6 1.9 -5 2.4 -10.2 1.1z"/>
  <path d="M450.3 263 c-6 -1.3 -12.3 -4.3 -15.9 -7.8 -3.4 -3.3 -7.4 -5.6 -11.7 -6.6 -1.7 -0.4 -3.1 -1.6 -3.7 -3.2 -0.7 -1.8 -1.5 -2.4 -2.6 -2 -0.9 0.4 -3.7 1.1 -6.2 1.8 -4 1 -4.9 0.9 -8.7 -1.2 -3.9 -2.1 -4.4 -2.2 -8.5 -0.8 -2.4 0.8 -4.5 1.8 -4.6 2.4 -0.5 1.6 6.8 6.4 9.8 6.4 2.3 0 2.9 0.4 2.6 1.8 -0.7 3.5 -5.4 2.7 -13.3 -2.3 -2.2 -1.4 -4.6 -2.8 -5.3 -3.1 -0.6 -0.4 -1.5 -2.4 -1.9 -4.6 l-0.6 -4 -4.6 0.7 c-2.5 0.4 -7.7 1 -11.6 1.4 -6.9 0.6 -14.6 4 -21.4 9.2 -2.4 1.9 -10.1 2.7 -10.1 1.1 0 -0.5 2.6 -2.1 5.8 -3.5 4.2 -2 6.6 -4 9.2 -7.6 3.4 -4.8 3.6 -4.8 9.9 -5.4 3.9 -0.3 6.9 -1.1 7.9 -2.1 2.1 -2 1.5 -2 -10.4 0 -9.1 1.6 -9.5 1.5 -13.6 -0.5 -3.3 -1.6 -4.8 -3.1 -6.5 -6.8 -2.3 -5.1 -2.2 -6.4 0.5 -4.5 5.5 4 10.1 4.2 21.6 1.3 6.7 -1.8 10.8 -2.1 27 -2 10.5 0 21.6 -0.4 24.6 -1 13.8 -2.7 20.9 -3.3 25.8 -2.2 5.8 1.2 8.9 0.6 9.7 -2 0.7 -2.2 3 -2.5 3.8 -0.6 0.2 0.7 3.1 2.3 6.3 3.6 3.3 1.3 7 3.4 8.4 4.7 1.4 1.2 3.7 2.6 5.3 2.9 3.4 0.9 3.4 2.4 0.1 4.9 -2.1 1.5 -3.6 1.7 -7.8 1.2 -4.3 -0.6 -5.6 -0.4 -7.4 1.3 -1.3 1 -3.3 2.7 -4.5 3.5 -2.1 1.6 -2 1.6 3.1 1 4.3 -0.5 7.1 0 15.2 2.6 5.5 1.8 10 3.6 10 4 0 2 -4.5 2 -10 0.1 -6.8 -2.4 -9.7 -2.6 -13.7 -1 -1.5 0.7 -5.9 1.5 -9.8 1.8 l-6.9 0.6 4.2 4.3 c4.5 4.6 10.2 7.6 16.5 8.7 3.4 0.7 5.5 2 4.5 3.1 -1 1 -6.6 1.2 -10.5 0.4z"/>
  <path d="M539.7 189.4 c-0.2 -0.2 -2.3 -0.6 -4.6 -0.9 -6.1 -0.8 -9.8 -2.6 -16.2 -7.8 -3 -2.5 -7.5 -5 -9.8 -5.7 -3 -0.8 -4.5 -1.8 -5.2 -3.7 -0.8 -2.1 -1.4 -2.4 -3.7 -1.9 -8 1.9 -10.5 1.9 -13.9 0.1 -3 -1.7 -4 -1.7 -8.1 -0.6 -2.5 0.7 -4.9 1.4 -5.2 1.7 -0.3 0.3 1.2 2.1 3.2 4 2.6 2.3 4.7 3.4 6.9 3.4 4.1 0 3.3 2.4 -1 2.8 -2.3 0.2 -4.5 -0.5 -7.2 -2.2 -2.1 -1.4 -4.2 -2.6 -4.7 -2.6 -2 0 -5.2 -4.3 -5.2 -7 0 -1.6 -0.3 -3.1 -0.7 -3.3 -0.5 -0.2 -3.7 0.2 -7.3 1 -3.6 0.7 -7.4 1.1 -8.6 0.8 -3.3 -0.7 -8.2 1.1 -17 6.5 -5.2 3.2 -9.3 5 -11.3 5 -4.7 0 -3.8 -1.6 2.7 -4.8 4 -2 6.8 -4.3 9.6 -8 3.9 -5.2 3.9 -5.2 9.5 -5.2 3.2 0 6.4 -0.7 7.4 -1.4 3 -2.3 0.5 -2.6 -7.4 -0.9 -9.5 1.9 -16.2 1.3 -19.4 -1.7 -1.4 -1.3 -2.5 -3.1 -2.5 -4.1 0 -0.9 -0.7 -2.2 -1.5 -2.9 -1.6 -1.4 -2 -4 -0.6 -4 0.5 0 1.4 0.6 2 1.4 2.3 2.8 14.6 4.7 16.8 2.5 2.3 -2.3 17.4 -3.9 30.8 -3.3 10.9 0.6 15.3 0.3 27 -1.6 10.3 -1.6 16.2 -2.1 22.3 -1.7 8.9 0.6 11.2 0.3 11.2 -1.8 0 -2.4 1.9 -2.6 3.8 -0.7 1.1 1.1 4.2 2.7 6.9 3.6 2.8 0.9 6.1 2.8 7.3 4.1 1.3 1.4 4.1 3 6.3 3.6 l3.9 1 -2.3 2.5 c-1.9 2.1 -3.2 2.4 -8.8 2.4 -5.6 0 -7 0.4 -9.2 2.3 -1.3 1.3 -3.8 2.9 -5.4 3.5 -2.4 0.8 -1.6 0.9 4.5 0.5 6.2 -0.5 8.7 -0.2 14 1.7 11.1 3.8 12 4.2 11.4 5.1 -0.8 1.4 -5.7 1.1 -10.4 -0.6 -5.5 -1.9 -12.3 -1.9 -16.1 0.1 -1.7 0.8 -4.9 1.5 -7.2 1.4 -6.1 -0.3 -6 -0.3 -3.8 2.9 2.7 3.8 11.4 9.1 16 9.8 4.4 0.7 7.3 2.1 6.6 3.2 -0.5 0.9 -5.2 2.1 -5.8 1.5z"/>
  <path d="M367.9 114.3 c-15.5 -21 -17.9 -24.3 -17.9 -25 0 -0.4 2.9 -2.8 6.3 -5.2 3.4 -2.5 8.6 -6.3 11.6 -8.5 l5.3 -4 2.4 2.9 c1.3 1.7 2.4 3.5 2.4 4 0 0.6 -2.3 2.6 -5.1 4.5 -11.2 7.8 -11.2 7.8 -8 12 l1.9 2.4 6 -4.7 c3.3 -2.6 6.5 -4.7 7 -4.7 1 0 4.2 4.4 4.2 5.7 0 0.4 -2.5 2.6 -5.6 4.8 -3.1 2.2 -5.8 4.3 -6 4.7 -0.5 0.7 3.7 7.8 4.6 7.8 0.3 0 3.9 -2.5 8 -5.5 4.1 -3 8 -5.5 8.6 -5.5 1.2 0 4.4 4.2 4.4 5.8 0 0.4 -3.3 3.2 -7.2 6.2 -4 2.9 -9 6.6 -11 8.2 -2 1.5 -4.1 2.8 -4.5 2.8 -0.5 0 -3.8 -3.9 -7.4 -8.7z m10.9 0.3 c-0.1 -0.2 -1.5 -0.6 -3.1 -1 -2.5 -0.6 -2.7 -0.5 -1.5 1.3 0.9 1.5 1.6 1.7 3.1 0.9 1 -0.5 1.7 -1.1 1.5 -1.2z m-11.8 -15.8 c-0.8 -0.4 -2.5 -0.7 -3.7 -0.7 -2.1 -0.1 -2.1 0 0.8 3.1 1.6 1.8 3 3.7 3 4.3 0.1 0.5 0.4 -0.6 0.8 -2.5 0.5 -2.6 0.2 -3.7 -0.9 -4.2z m-8 -8.4 c0 -2.2 -0.2 -2.5 -1.5 -1.4 -1.2 1 -1.3 1.6 -0.4 2.6 1.6 2 1.9 1.8 1.9 -1.2z"/>
  <path d="M614.2 117.8 c-1.8 -1.1 -3.1 -2.6 -2.9 -3.2 0.3 -0.6 4.2 -6.1 8.7 -12.1 10.9 -14.7 10.8 -14.4 7 -15.2 -2.8 -0.5 -3.1 -0.9 -2.5 -3.2 0.4 -1.4 1.1 -3 1.6 -3.6 1.5 -1.5 12 1.2 14.7 3.8 l2.3 2.3 -12.1 16.1 c-6.6 8.9 -12.3 16.4 -12.8 16.7 -0.4 0.2 -2.3 -0.5 -4 -1.6z m21.8 -30.3 c0 -0.8 -0.4 -1.7 -1 -2 -0.6 -0.4 -1 0.5 -1 2 0 1.5 0.4 2.4 1 2 0.6 -0.3 1 -1.2 1 -2z"/>
  <path d="M585.5 99.5 c-6.6 -3.5 -12.1 -6.8 -12.3 -7.3 -0.5 -1.6 4.8 -7.2 8.7 -9.1 2 -1 6.9 -2.6 10.9 -3.6 9.1 -2.2 11.8 -4.1 10.8 -7.9 -0.8 -3.1 -6.2 -5.9 -10.5 -5.4 -2.3 0.3 -2.6 -0.1 -2.9 -2.8 -0.4 -4.3 1.6 -5.7 7.3 -4.9 4.9 0.8 11.5 4.7 14.1 8.4 2.1 2.9 2 9.5 0 12.7 -2.1 3.2 -6.1 5.1 -15.3 7.4 -4.2 1 -8 2.3 -8.5 2.8 -0.6 0.6 1.6 2.3 5.8 4.6 3.8 2 7.2 3.6 7.6 3.6 0.4 0 0.8 0.7 0.8 1.5 0 1.7 -2.9 6.5 -3.9 6.5 -0.3 -0.1 -6 -2.9 -12.6 -6.5z m-2.5 -9 c0 -1.8 -0.5 -2.5 -2 -2.5 -2.5 0 -2.6 2.5 -0.2 3.9 2.3 1.4 2.2 1.4 2.2 -1.4z"/>
  <path d="M404.9 98.5 c-0.3 -0.2 -0.3 -2 -0.1 -4 0.4 -3.2 0.7 -3.5 3.6 -3.5 4.7 0 8.1 -2.1 8.1 -5 0 -2.4 -0.3 -2.5 -7.7 -3 -9.3 -0.6 -11.8 -2.4 -12.5 -9.2 -0.5 -3.9 -0.2 -4.9 2.5 -8 3.4 -3.8 9.1 -6.2 13.7 -5.6 2.5 0.2 3 0.8 3.3 3.4 0.3 2.9 0.1 3.2 -3.7 3.8 -4.6 0.7 -7.8 4.1 -5.9 6.3 0.6 0.7 1.7 1.3 2.4 1.3 2.6 0 1.4 2.9 -1.3 3.3 -1.6 0.2 -0.4 0.5 2.5 0.6 4.6 0.1 5.2 -0.1 5.2 -1.9 0 -1.5 0.7 -2 2.9 -2 4.6 0 8.2 3.7 8.8 9.1 0.4 3.9 0.1 5 -2.3 7.8 -3.5 4.2 -9.6 7 -15 7.1 -2.2 0 -4.3 -0.2 -4.5 -0.5z m17.3 -15.7 c-0.9 -0.9 -1.2 -0.4 -1.1 2.3 0 3.2 0.1 3.3 1.1 1.1 0.8 -1.7 0.8 -2.6 0 -3.4z m-20.2 -10 c-0.1 -2.6 -0.3 -3 -1 -1.6 -0.6 0.9 -0.7 2.3 -0.4 3.2 0.9 2.5 1.4 1.9 1.4 -1.6z"/>
  <path d="M549.9 86.1 c-6.7 -2.1 -10.4 -6.3 -11.5 -13 -0.6 -3.7 -0.5 -4.1 1.4 -4.1 1.3 0 2.2 0.8 2.5 2.3 0.2 1.2 0.4 -0.5 0.4 -3.8 0 -3.3 -0.2 -4.8 -0.4 -3.2 -0.3 1.9 -1 2.7 -2.5 2.7 -1.8 0 -2 -0.5 -1.5 -3.9 1.1 -8.8 8.6 -18.4 15.1 -19.7 5.1 -0.9 10.1 0.3 13.6 3.3 4.6 3.8 6.2 7.7 6.1 14.7 -0.1 11 -4.7 19.8 -12.5 23.5 -4.5 2.2 -6.5 2.4 -10.7 1.2z m9.8 -10.7 c1.2 -1.3 3 -4.9 3.9 -7.9 1.9 -5.8 4.3 -7.4 4.5 -2.7 l0.1 2.7 0.9 -3 c0.5 -1.7 0.5 -4.2 0 -6 -0.8 -2.4 -0.9 -2.6 -1 -0.7 -0.1 3.4 -2.5 2.6 -4 -1.4 -2.7 -7.4 -11 -6.4 -15 1.8 -4.3 9 -3.5 16.8 1.9 19.5 3.1 1.6 5.9 0.8 8.7 -2.3z"/>
  <path d="M443.5 85 c-5.2 -2.1 -6.5 -4.8 -10.6 -20.2 -1.2 -4.3 -1.5 -4.6 -4 -4.1 -2.4 0.4 -2.8 0.1 -3.4 -2.7 -0.7 -3.1 -0.1 -4.2 3 -5.3 0.6 -0.2 0.5 -1.8 -0.4 -4.1 -1.5 -4.4 -0.9 -5.4 4.1 -6.2 3.6 -0.6 3.6 -0.6 4.3 3.6 0.6 3.8 0.9 4.1 3.2 3.5 7.8 -1.9 8.1 -1.9 8.8 1.4 0.9 4 0.3 4.8 -4.6 5.6 -4.6 0.8 -4.6 0 -0.7 12.8 2.1 7.1 3.8 8.8 6.8 6.9 1.4 -0.9 2.2 -0.6 3.9 1.2 1.1 1.2 2.1 2.7 2.1 3.3 0 2.8 -8.9 5.9 -12.5 4.3z m-7.5 -28.5 c0 -1.6 0.6 -2.5 1.6 -2.5 1.4 0 1.4 -0.2 0 -1.5 -2.3 -2.4 -4.6 -1.9 -4.6 1 0 1.4 -0.5 2.5 -1 2.5 -1.5 0 1.2 2.9 2.8 3 0.6 0 1.2 -1.1 1.2 -2.5z"/>
  <path d="M463.2 80 c-2.7 -2.5 -2.8 -6.1 -0.4 -8.3 3.8 -3.4 10.2 -0.9 10.2 4 0 2.3 -3.9 6.3 -6.1 6.3 -0.8 0 -2.5 -0.9 -3.7 -2z m5.2 -4.5 c-0.4 -0.8 -1 -1.2 -1.5 -0.9 -1.4 0.8 -1 2.4 0.6 2.4 0.9 0 1.2 -0.6 0.9 -1.5z"/>
  <path d="M515.5 79.2 c-8.2 -0.4 -11.5 -1.2 -11.5 -2.7 0 -1.1 1.4 -1.5 5.5 -1.5 4.8 0 5.5 -0.2 5.5 -2 0 -1.7 0.7 -2 4.8 -2 6.4 0 7.5 0.9 6.7 5.4 -0.6 3.2 -1.1 3.6 -3.4 3.4 -1.4 -0.2 -4.8 -0.4 -7.6 -0.6z"/>
  <path d="M497.4 73.8 c0.9 -5.5 3.6 -9.4 9.5 -13.7 11 -8.2 13.7 -12.7 9 -15.2 -2.1 -1.1 -8.7 -0.8 -12 0.6 -1.2 0.5 -1.9 -0.2 -2.8 -2.6 -1.4 -4.2 -1.6 -3.8 2.4 -5.5 4.9 -2 7.5 -1.8 7.5 0.6 0 1.1 0.7 2 1.5 2 0.8 0 1.5 -0.9 1.5 -2 0 -2.6 3.4 -2.6 7.7 0 3.9 2.4 5.3 4.8 5.5 9.9 0.2 4.7 -1.6 7.7 -7.3 12.3 -2.3 1.8 -5.8 4.8 -7.8 6.5 -3.5 3.2 -3.5 3.3 -1.3 3.9 3.8 1.1 2.7 3.4 -1.8 3.4 -4 0 -4 0 -4 -3.7 l0 -3.8 -1.6 3 c-0.9 1.7 -1.6 4.2 -1.5 5.8 0.1 2.3 -0.3 2.7 -2.5 2.7 -2.6 0 -2.6 -0.2 -2 -4.2z"/>
 </g>
 <g fill="#555555">
  <path d="M482.5 932.6 c-2.2 -1.8 -12.8 -10.4 -23.5 -19 -10.7 -8.7 -20.4 -16.5 -21.5 -17.4 -1.1 -1 -4 -3.3 -6.5 -5.2 -2.5 -1.9 -4.7 -3.7 -5 -4 -0.3 -0.3 -2.5 -2.1 -5 -4 -2.5 -1.9 -4.7 -3.7 -5 -4.1 -0.3 -0.3 -4.1 -3.5 -8.6 -7 -4.5 -3.5 -18.1 -14.5 -30.4 -24.4 -12.2 -9.9 -24.6 -19.8 -27.5 -22 -2.8 -2.2 -7.7 -6.2 -10.9 -8.9 -3.1 -2.8 -6.7 -5.7 -7.9 -6.5 -1.2 -0.8 -4 -3.1 -6.3 -5 -2.3 -2 -7.7 -6.4 -12 -9.8 -4.3 -3.5 -10.6 -8.4 -13.9 -11 -3.3 -2.7 -8.9 -7.2 -12.5 -10.1 -3.6 -3 -7.2 -5.9 -8 -6.6 -2.1 -1.6 -49.8 -39.9 -57.9 -46.4 -3.6 -3 -8.2 -6.6 -10.1 -8.2 -16.7 -13.4 -21.2 -17 -25.1 -20.5 l-4.4 -4 0.5 -55.3 c0.5 -53.3 0.6 -55.4 2.4 -56.8 2.8 -2 6.3 -1.7 8.6 0.6 1.9 1.9 2 3.3 2 53.3 0 28.1 0.4 51.7 0.8 52.3 0.4 0.7 8.4 7.3 17.7 14.9 9.4 7.5 17.8 14.3 18.7 15 1 0.8 13.3 10.8 27.5 22.2 26.4 21.2 41.3 33.2 44.8 36.1 1.1 0.9 6.5 5.2 12 9.6 5.5 4.4 10.2 8.3 10.5 8.6 0.3 0.3 3.8 3 7.8 6 3.9 3 7.2 5.8 7.2 6.2 0 0.5 0.6 0.8 1.4 0.8 0.8 0 1.6 0.4 1.8 0.8 0.3 0.8 15 13 26.8 22.2 5.2 4 35 28 39.2 31.5 1 0.8 7.5 6 14.5 11.7 7 5.6 13 10.5 13.3 10.8 0.3 0.3 3.3 2.7 6.7 5.3 3.4 2.6 6.8 5.3 7.5 6 2.5 2.4 31 25.2 33.2 26.6 2.4 1.5 2.7 1.3 19.3 -12.3 1 -0.8 9.5 -7.6 18.8 -15.1 9.4 -7.5 17.9 -14.4 19 -15.3 1.1 -0.9 3.7 -2.9 5.7 -4.4 2 -1.5 4.2 -3.3 5 -4 0.7 -0.7 9.4 -7.8 19.3 -15.8 9.9 -7.9 18.2 -14.8 18.3 -15.2 0.2 -0.4 1 -0.8 1.7 -0.8 0.8 0 1.8 -0.6 2.2 -1.3 0.4 -0.7 6.9 -6.2 14.3 -12.1 7.4 -5.9 14.4 -11.5 15.5 -12.5 5.8 -4.7 18.3 -14.7 28.4 -22.7 6.2 -4.9 11.8 -9.4 12.5 -9.9 0.6 -0.6 7.9 -6.5 16.1 -13.1 25.8 -20.7 41.9 -33.6 45.1 -36.3 1.6 -1.4 4.3 -3.6 6 -4.8 3.4 -2.6 3.1 -2.3 27.7 -22.3 l19.2 -15.5 0.5 -52.4 0.5 -52.3 2.4 -1.9 c3.9 -3.2 8.4 -2.3 10.4 2 0.9 2 1.1 15.5 0.7 56.8 l-0.5 54.2 -17 13.8 c-9.4 7.6 -19 15.4 -21.5 17.3 -6.7 5.2 -8 6.3 -11.4 9.1 -3.6 3 -18.8 15.2 -40.1 32.3 -8.2 6.6 -15.2 12.2 -15.5 12.6 -0.3 0.3 -2.5 2.1 -5 4 -2.5 1.9 -5.4 4.2 -6.5 5.2 -2 1.6 -26.6 21.2 -29.5 23.5 -0.8 0.6 -4.7 3.8 -8.6 7 -3.9 3.2 -8.9 7.2 -10.9 8.8 -2.1 1.7 -12.4 9.9 -22.9 18.4 -10.5 8.5 -22.7 18.3 -27.1 21.9 -4.4 3.5 -8.9 7.2 -10 8.1 -1.1 0.9 -7.4 5.9 -14 11.2 -24.5 19.6 -45.1 36.2 -48.1 38.8 -1.6 1.4 -4.5 3.7 -6.4 5.1 -1.8 1.4 -5.1 4 -7.3 5.8 -2.1 1.7 -4.2 3.2 -4.5 3.2 -0.4 -0.1 -2.5 -1.6 -4.7 -3.4z"/>
  <path d="M444.1 658.6 c-0.8 -1 -0.9 -1.6 -0.1 -2.1 0.5 -0.3 1.3 0.1 1.6 1 0.9 2.2 -0.1 2.9 -1.5 1.1z"/>
  <path d="M402.5 506 c-6.9 -0.8 -16.6 -3.5 -21 -5.8 -1.6 -0.8 -7.3 -2.7 -12.5 -4.2 -6.3 -1.9 -9.6 -3.3 -9.8 -4.3 -0.2 -0.9 0.8 -7.8 2.2 -15.4 1.4 -7.6 3 -17.6 3.6 -22.3 1.6 -12.3 2.1 -13.2 7.3 -12.8 l4.2 0.3 0.8 5 c3.5 21.9 7.2 30.9 16.5 39.7 4.3 4.1 7.3 6 11.5 7.4 6.8 2.1 7.6 4.4 1.7 4.4 -5.7 0 -12.8 -3.9 -18.6 -10.2 -8.1 -8.9 -12.9 -21.1 -14.1 -36 -0.5 -5.6 -0.9 -6.8 -2.2 -6.6 -1 0.2 -1.8 1.9 -2.2 4.8 -2.2 14.2 -6.2 37.5 -6.5 38.5 -0.3 0.7 2.1 1.9 6.3 3 3.7 1 11.2 3.5 16.5 5.6 16.5 6.5 30.1 7.3 47.6 2.8 12 -3.1 19.8 -7.3 27.8 -15.3 7.5 -7.6 14.4 -19.3 14.4 -24.7 0 -2.3 0.5 -2.9 2.1 -2.9 2 0 2.1 0.3 1.5 5.2 -1.2 8.5 -5.9 17.2 -14 25.3 -8.1 8.2 -17.3 13.3 -29.6 16.4 -8.7 2.1 -24.8 3.2 -33.5 2.1z"/>
  <path d="M554.3 506.3 c-1.2 -0.2 -2.6 -1 -3.1 -1.6 -0.5 -0.7 -1.4 -8.8 -2.1 -18.2 -1.5 -21.9 -1.5 -21.5 0.7 -21.5 1.6 0 1.9 1.8 3 17.8 1 14.5 1.5 17.9 2.9 19 0.9 0.6 2.1 1.2 2.6 1.2 1.3 0 11.7 -11.4 11.7 -12.9 0 -0.4 1.4 -2.1 3 -3.9 1.7 -1.8 3 -3.7 3 -4.2 0 -0.4 1.4 -2.2 3 -4 1.7 -1.8 3 -3.5 3 -3.9 0 -1 12 -16.6 13 -16.9 0.6 -0.2 1 -0.9 1 -1.4 0 -1.2 22.4 -31.7 24.6 -33.4 0.8 -0.6 1.4 -1.5 1.4 -1.9 0 -0.4 2.6 -4.2 5.7 -8.4 16 -21.6 18.8 -25.1 19.5 -25.1 0.4 0 0.8 -0.7 0.8 -1.5 0 -0.9 0.7 -1.8 1.5 -2.1 0.8 -0.4 1.5 -1.1 1.5 -1.6 0 -1.9 13.2 -18.8 14.6 -18.8 0.8 0 1.4 -0.8 1.4 -1.8 0 -1.8 9.6 -11.7 14.1 -14.4 3.5 -2.2 12.5 -4.8 16.5 -4.8 3.3 0 4.4 -1.3 4.4 -5.2 0 -1.3 0.6 -1.8 1.8 -1.6 2 0.4 2.7 3.5 1.3 6.9 -0.8 2.1 -1.9 2.7 -7.6 3.8 -14.6 2.6 -21.3 8.8 -45.6 41.6 -8.9 12.1 -21.3 28.8 -27.4 37 -6.1 8.3 -17 22.9 -24.1 32.5 -7.2 9.6 -18.2 24.5 -24.6 33.1 -9.9 13.3 -12.1 15.7 -14.8 16.3 -1.8 0.3 -3.5 0.5 -3.9 0.5 -0.3 -0.1 -1.6 -0.4 -2.8 -0.6z"/>
  <path d="M71.7 502.3 c-1.3 -1.3 -0.7 -6.1 1.1 -8.1 1 -1.1 4.3 -2.5 7.7 -3.2 10.8 -2.2 13.9 -5.1 17 -15.5 1.2 -4.4 16.3 -67.4 24.6 -103.4 4.8 -20.7 4.1 -23 -7.5 -25.6 -8.1 -1.8 -9.7 -3.6 -7.3 -8.4 1.9 -3.9 3.7 -3.8 3.7 0.2 0 3.2 0.3 3.5 3.8 4.1 8.6 1.5 9.2 1.7 9.2 3.7 0 1.2 0.7 1.9 1.9 1.9 3.4 0 4.1 9 1.6 19.4 -0.8 3.4 -2.5 10.8 -3.9 16.6 -5 21.3 -15.7 66.9 -18.7 79.5 -6 25.8 -7.4 27.8 -21 30.9 -6.2 1.5 -11.4 4.6 -7.6 4.6 2.5 0 2.1 2.7 -0.5 3.4 -2.9 0.7 -3.3 0.7 -4.1 -0.1z"/>
  <path d="M676 501.1 c-1.1 -2.2 -0.1 -6 2.1 -7.8 0.8 -0.6 3 -1.4 4.9 -1.8 9 -1.7 13.1 -3.7 15.5 -7.3 2.3 -3.4 5.8 -15.8 10.4 -36.2 1 -4.7 6.3 -26.9 11.6 -49.4 10.1 -42.6 10.5 -45.5 6.5 -49.1 -1 -0.9 -4.9 -2.4 -8.7 -3.3 -5.5 -1.4 -6.9 -2.1 -7.1 -3.8 -0.5 -3.4 1.5 -7.4 3.8 -7.4 2.2 0 2.6 2 1 5.1 -0.9 1.6 -0.7 1.9 1.3 1.9 4.4 0 12.6 3 14.2 5.3 2.9 4.2 1.9 14.4 -4 39.7 -19.4 82.8 -22.1 93.6 -24.5 98.6 -1.2 2.4 -2.8 4.4 -3.6 4.4 -0.8 0 -1.4 0.4 -1.4 1 0 1.1 -9.2 4 -12.6 4 -1.2 0 -3 0.8 -4 1.8 -1.6 1.6 -1.6 1.7 -0.1 2 2.5 0.5 2.1 2.9 -0.5 3.6 -3.4 0.9 -3.6 0.8 -4.8 -1.3z"/>
  <path d="M754.8 502.3 c-3.3 -0.8 -2 -3.3 1.6 -3.3 2.1 0 3.6 -0.6 3.9 -1.5 0.8 -1.8 0.3 -2.1 -5.4 -2.9 -7.8 -1.1 -8.4 -2 -8.4 -12.8 0 -9.4 0.2 -10.5 8.1 -43.3 1.9 -7.7 3.6 -15 3.9 -16.2 l0.5 -2.3 31.5 0 31.5 0 0 3.9 c0 2.1 -1.8 11.7 -4 21.2 -2.3 9.6 -5 21.5 -6.2 26.4 -2.4 10.3 -5.8 17.8 -9.1 19.9 -1.2 0.9 -4.6 2.1 -7.5 2.9 -2.9 0.7 -6 2.1 -6.9 3 -1.6 1.6 -1.6 1.7 0.5 1.7 3.3 0 2.7 2.7 -0.8 3.5 -3.8 0.8 -5 0 -5 -3.3 0 -4.5 2.4 -6.7 8.4 -8.1 3 -0.7 6.6 -2.1 8.1 -3.3 5 -3.9 6 -7 15 -45.8 2 -8.5 3.8 -16.1 4 -16.7 0.3 -1 -5.7 -1.3 -28 -1.3 l-28.3 0 -1 4.3 c-0.5 2.3 -3.3 14 -6.1 26 -5.3 22.5 -6.3 32.4 -3.7 34.6 0.8 0.7 4.2 1.7 7.5 2.3 5.9 1.1 6.1 1.2 6.1 4.3 0 6.1 -3.7 8.5 -10.2 6.8z"/>
  <path d="M862.8 502.3 c-3 -0.8 -2.1 -3.3 1.1 -3.3 1.6 0 3.1 -0.6 3.4 -1.5 0.8 -1.8 0.2 -2.1 -5.3 -3 -7.2 -1.2 -9.8 -3 -11.1 -7.8 -1.4 -5.4 -0.8 -11.6 3 -27.4 1.7 -7.1 5.6 -23.4 8.6 -36.3 14.1 -59.2 15.1 -63.1 17.2 -68.7 0.9 -2.4 2 -4.3 2.4 -4.3 0.5 0 0.9 -0.6 0.9 -1.4 0 -2.1 8.1 -5.7 14.4 -6.3 5.2 -0.5 5.5 -0.7 6.1 -3.9 0.4 -2.6 1.1 -3.4 2.7 -3.4 1.8 0 2 0.4 1.5 3.6 -0.8 5.1 -1.9 6 -9 7.4 -7.3 1.4 -12.2 4.1 -14.1 7.8 -2.2 4.2 -5 14.7 -11.5 42.4 -6.2 26 -9.4 39.7 -15.7 65.6 -3.8 15.9 -4.1 19.9 -1.9 24.2 1.5 3 4.8 4.4 12.2 5.6 4.8 0.7 5.8 2.3 4.3 6.9 -1.3 3.9 -4.2 5.1 -9.2 3.8z"/>
  <path d="M96 500 c0 -2 0.7 -2 55 -2 54.3 0 55 0 55 2 0 2 -0.7 2 -55 2 -54.3 0 -55 0 -55 -2z"/>
  <path d="M218 500.7 c0 -1.9 3.6 -18 7.6 -34.2 3.7 -15.1 3.9 -16.5 2.4 -16.5 -0.5 0 -1 0.5 -1 1.1 0 3.5 -7.6 16.2 -13.4 22.5 -7.8 8.5 -15.4 13.8 -24.5 17 -7.8 2.8 -18.1 3.3 -18.1 0.9 0 -0.9 1.4 -1.6 3.8 -2 13.4 -2.1 20.4 -5.4 29.6 -13.7 7.5 -6.8 14.6 -16.2 17.2 -22.8 2.4 -6.5 3.6 -7.4 7.9 -6.6 2 0.4 3.8 1.3 4.1 2.1 0.3 0.7 -1.5 9.6 -3.9 19.7 -2.5 10 -5.3 21.8 -6.2 26.1 -1.4 6.3 -2 7.7 -3.6 7.7 -1 0 -1.9 -0.6 -1.9 -1.3z"/>
  <path d="M695 500 c0 -1.9 0.7 -2 24.5 -2 23.8 0 24.5 0.1 24.5 2 0 1.9 -0.7 2 -24.5 2 -23.8 0 -24.5 -0.1 -24.5 -2z"/>
  <path d="M800 500 c0 -1.9 0.7 -2 25 -2 24.3 0 25 0.1 25 2 0 1.9 -0.7 2 -25 2 -24.3 0 -25 -0.1 -25 -2z"/>
  <path d="M415 496.6 c0 -1 1.9 -1.9 5.4 -2.6 11.1 -2.3 16.7 -9.6 17.4 -22.5 0.6 -12 -1.3 -15.2 -21.2 -35.5 -25.5 -25.9 -31.7 -34.8 -33.2 -47.3 -0.6 -5.3 -0.5 -5.7 1.3 -5.7 1.6 0 2.1 0.8 2.6 4 1.4 11 11 24 35.2 48 17.6 17.5 19 20.1 19 35.5 -0.1 8.8 -0.4 11.7 -1.9 14.5 -2.8 5.2 -7.5 9.7 -11.8 11.5 -5 2 -12.8 2 -12.8 0.1z"/>
  <path d="M146.1 491.6 c-7.4 -4.1 -6.8 -11.8 4.2 -56.1 l4.2 -17 8.9 -0.3 c20.6 -0.7 28.5 5.1 28.6 20.5 0 6.5 1.2 8.7 2.9 5.5 0.6 -1.1 1.9 -6.8 3 -12.8 1.1 -6 3.6 -17.4 5.5 -25.3 2 -7.9 3.4 -14.6 3.2 -14.9 -0.3 -0.2 -1.6 2 -3 5.1 -1.3 3 -4.2 7.3 -6.4 9.5 -5.7 5.7 -11.6 7.4 -27 7.6 l-12.7 0.1 0.1 -5 c0.1 -2.7 1.4 -9.9 2.8 -16 1.5 -6 4.1 -16.8 5.8 -24 5.1 -21.3 7 -23.5 21.5 -24.3 12.9 -0.7 20.3 0.4 26.4 4.1 9.1 5.5 16.7 17.5 19 30 0.8 4.3 1.7 6.7 2.6 6.7 1 0 1.3 -2 1.3 -8 0 -7.3 0.2 -8 2 -8 1.8 0 2 0.7 2 8.4 0 10.6 -0.4 11.6 -4.5 11.6 -5 0 -6.5 -0.9 -6.5 -4 0 -4.9 -3.8 -15.4 -7.8 -21.6 -7.6 -11.7 -14.7 -15.4 -29.6 -15.4 -11 0 -15 1.7 -17.9 7.3 -1.6 3.1 -13.5 50.5 -13.7 54.1 0 0.5 4.8 0.6 10.8 0.4 8.9 -0.4 11.5 -0.9 15.7 -3 6.2 -3.2 7.9 -5.1 12 -13 3 -6.1 3.3 -6.3 7.3 -6.6 2.9 -0.2 4.4 0.1 4.8 1.1 0.3 0.8 -1.3 8.6 -3.6 17.3 -2.2 8.7 -5.1 21.8 -6.5 28.9 -2.6 13.4 -3.6 15.5 -7.9 15.5 -4 0 -5.1 -1.6 -5.2 -7.8 -0.3 -15 -7 -20.7 -23.6 -20 l-7.1 0.3 -4.4 18.5 c-9.4 40.1 -9.5 40.8 -6.7 44.8 0.8 1.2 3.4 2.7 6 3.3 5.8 1.5 6 3.9 0.2 3.9 -2.4 -0.1 -5.4 -0.7 -6.7 -1.4z"/>
  <path d="M547.6 460.8 c-0.6 -3.7 -3.6 -44.1 -3.6 -48.2 0 -1.8 0.5 -2.6 1.8 -2.6 1.6 0 1.9 2.3 3.5 24.3 1 13.3 1.7 25.4 1.7 27 0 3.9 -2.8 3.5 -3.4 -0.5z"/>
  <path d="M476 447.2 c0 -6 -5.2 -17.8 -10.2 -23.5 -1.6 -1.8 -2.8 -3.5 -2.8 -4 0 -0.4 -1.6 -2.1 -3.5 -3.8 -1.9 -1.7 -3.5 -3.7 -3.5 -4.5 0 -0.8 -0.5 -1.4 -1.1 -1.4 -2.2 0 -16.9 -15.4 -16.9 -17.7 0 -1.9 -0.6 -2.3 -3 -2.3 -2.3 0 -3 -0.5 -3 -1.9 0 -1 -0.9 -2.1 -2 -2.4 -2.6 -0.7 -7 -10 -7 -14.9 0 -5.6 2.3 -4.8 4.3 1.5 2.3 7.2 4.9 10.4 21.4 26.2 21.5 20.6 29.3 32.2 30.9 45.8 0.6 5.4 0.5 5.7 -1.5 5.7 -1.6 0 -2.1 -0.6 -2.1 -2.8z"/>
  <path d="M589 441.5 c0 -6.5 2.3 -7.7 3.7 -1.9 l0.8 3.5 3.6 -4.8 c2 -2.6 12.1 -16.3 22.6 -30.3 10.4 -14 22.2 -30 26.3 -35.5 8.5 -11.4 11 -15.8 11 -19.5 0 -4 -2 -6 -7.5 -7.4 -4.3 -1 -5 -1.6 -5.3 -3.9 -0.4 -2.8 1.3 -6.7 2.8 -6.7 0.6 0 1 1.5 1 3.4 0 3.2 0.1 3.4 4.7 3.9 6.1 0.7 7.3 2.4 7.3 10.9 0 6.8 -1.9 12.8 -4 12.8 -0.6 0 -1 0.6 -1 1.4 0 0.7 -1.1 2.5 -2.5 4 -1.4 1.5 -2.5 2.9 -2.5 3.2 0 1.4 -12.6 17.4 -13.7 17.4 -0.7 0 -1.3 0.8 -1.3 1.8 -0.1 1.5 -25.4 36.8 -31.5 43.6 -1.4 1.6 -2.5 3.1 -2.5 3.3 0 0.3 -0.9 1.8 -2.1 3.4 -1.7 2.4 -2.8 2.9 -6 2.9 l-3.9 0 0 -5.5z"/>
  <path d="M588 426.5 c0 -5.7 0.3 -7.5 1.4 -7.5 1.7 0 2.6 3.1 2.6 9.8 0 4.5 -0.3 5.2 -2 5.2 -1.8 0 -2 -0.7 -2 -7.5z"/>
  <path d="M270 428.1 c-1.8 -3.4 -1.3 -7.1 1 -7.1 1.3 0 2 0.7 2 1.9 0 1.1 0.5 2.3 1 2.6 0.6 0.3 1 1.5 1 2.6 0 2.5 -3.6 2.5 -5 0z"/>
  <path d="M331 428.2 c0 -1 0.5 -2.3 1.1 -2.9 0.5 -0.5 0.9 -3.4 0.7 -6.4 l-0.3 -5.4 -29.5 0 -29.5 0 -0.3 2.8 c-0.2 1.9 -0.9 2.7 -2.3 2.7 -1.5 0 -1.9 -0.7 -1.9 -3.1 0 -1.7 0.5 -3.9 1 -5 1 -1.8 2.4 -1.9 32.3 -1.9 17.4 0 31.8 0.4 32.7 1 1.8 1.1 2.6 13.3 1.1 17.3 -1.2 3.1 -5.1 3.9 -5.1 0.9z"/>
  <path d="M587 408.5 c0 -6.6 0.3 -8.5 1.4 -8.5 1.8 0 2.6 3.1 2.6 10.8 0 5.5 -0.2 6.2 -2 6.2 -1.8 0 -2 -0.7 -2 -8.5z"/>
  <path d="M818 413.6 c0 -0.7 0.8 -1.6 1.9 -1.9 1.8 -0.4 3.9 -8 12.1 -43.9 1.5 -6.6 2.7 -9.8 3.6 -9.8 2.1 0 1.7 5.4 -1.2 17.7 -5.1 21.8 -7.5 31.9 -8.5 35.6 -0.9 3.4 -1.3 3.7 -4.4 3.7 -2.3 0 -3.5 -0.5 -3.5 -1.4z"/>
  <path d="M762 408.8 c0 -1.7 1.1 -7.4 2.4 -12.7 1.4 -5.3 4 -16.2 6 -24.3 5.3 -22.4 8.7 -27.7 18.9 -29.3 4.8 -0.8 7.7 -2.9 7.7 -5.7 0 -1.1 0.7 -1.8 2 -1.8 2.3 0 2.7 3.1 0.7 6.9 -0.9 1.8 -2.9 2.9 -7.7 4.2 -11.7 3.2 -12.8 5.3 -22 44.2 -3.7 15.6 -5.6 21.7 -6.6 21.7 -0.9 0 -1.4 -1.1 -1.4 -3.2z"/>
  <path d="M543.6 404.8 c-0.3 -1.8 -1.3 -12.7 -2.1 -24.1 -2.1 -29.2 -4 -32.8 -18.4 -35.2 l-4.2 -0.7 0.3 -4.6 c0.3 -4.1 0.6 -4.7 2.7 -5 2.2 -0.3 2.3 -0.1 1.7 3 l-0.6 3.4 6.2 1.3 c8.1 1.7 12.1 5.5 13.7 13.1 1 5.2 2.3 19.9 3.8 42.3 0.5 8.5 0.4 9.7 -1 9.7 -1 0 -1.8 -1.2 -2.1 -3.2z"/>
  <path d="M586 386.5 c0 -6.6 0.3 -8.5 1.4 -8.5 1.8 0 2.6 3.1 2.6 10.8 0 5.5 -0.2 6.2 -2 6.2 -1.8 0 -2 -0.7 -2 -8.5z"/>
  <path d="M476.3 387.3 c-0.7 -0.2 -1.3 -1.4 -1.3 -2.4 0 -1.7 0.6 -2 3.2 -1.7 3.9 0.4 4 0 6.3 -19.2 0.9 -7.4 1.8 -15.4 2.2 -17.7 0.5 -3.8 0.3 -4.3 -1.3 -4.3 -1.1 0 -8.2 -1.6 -15.9 -3.5 -7.7 -1.9 -15.7 -3.5 -17.7 -3.5 -3.1 0 -3.8 -0.4 -3.8 -2 0 -3 6 -2.6 22.5 1.4 7.7 1.9 15.7 3.8 17.8 4.2 3.3 0.5 3.8 1 3.3 2.8 -0.8 3.4 -3.4 22.1 -4.7 33.9 -1.1 10.1 -1.4 10.9 -3.6 11.8 -2.6 1 -5 1.1 -7 0.2z"/>
  <path d="M383 376.5 c0 -8.6 6.9 -22.5 15.2 -30.5 8.3 -8.1 21.2 -13.6 34.5 -14.7 6.8 -0.6 7.3 -0.5 7.3 1.4 0 1.7 -0.9 2.1 -6.2 2.6 -8.8 0.8 -18.7 4.1 -24.8 8.2 -2.9 1.9 -5.8 3.5 -6.6 3.5 -0.8 0 -1.4 0.5 -1.4 1.2 0 0.6 -1.8 3.6 -4.1 6.5 -5.1 6.8 -9 15.3 -9.7 20.9 -0.4 3.5 -0.9 4.4 -2.3 4.4 -1.5 0 -1.9 -0.7 -1.9 -3.5z"/>
  <path d="M473.6 372.3 c-3.1 -12.9 -10.2 -23.9 -18 -28.1 -1.9 -0.9 -5.4 -1.6 -8.7 -1.6 -10 0.1 -17.6 6.2 -20.1 16.1 -1.4 5.8 -3.8 5.8 -3.8 0 0 -6.1 3.6 -12.6 8.9 -16.1 3.7 -2.5 5.7 -3 12.2 -3.4 4.3 -0.2 9.3 -0.2 11.3 0.2 3.6 0.7 11.7 7.6 15.3 13.1 5.4 8.4 9.6 26.5 6.1 26.5 -1 0 -2 -2.1 -3.2 -6.7z"/>
  <path d="M585.2 363.8 c0.2 -7.2 0.9 -12.4 1.8 -14.3 1.9 -3.9 7.3 -6.4 15.2 -7.3 6 -0.7 6.3 -0.8 7.3 -3.9 1.6 -5.8 5.2 -3.7 4 2.3 -0.7 4 -0.5 3.9 -10.4 5.4 -5.6 0.9 -8.1 1.9 -10.4 4 -3.1 2.8 -3.2 2.9 -3.5 13.9 -0.4 10.3 -0.6 11.1 -2.4 11.1 -1.9 0 -2 -0.5 -1.6 -11.2z"/>
  <path d="M238.4 356.8 c1.1 -19.3 1.5 -21.8 4.1 -21.8 2.1 0 2.1 0 0.9 9.8 -0.7 5.3 -1.4 11.7 -1.4 14.2 0 6.1 -0.9 9 -2.8 9 -1.3 0 -1.4 -1.5 -0.8 -11.2z"/>
  <path d="M833.5 353.1 c-0.9 -4 -3.1 -5.7 -9.5 -7.3 -6.1 -1.4 -7 -2.9 -5 -7.9 0.8 -1.8 2 -2.9 3.2 -2.9 1.7 0 1.9 0.5 1.4 3.3 l-0.6 3.4 5.5 1.2 c6.4 1.4 8.5 3.8 8.5 9.3 0 4.6 -2.5 5.3 -3.5 0.9z"/>
  <path d="M123 337 c0 -1.9 0.7 -2 11.8 -2 12.9 0 16.2 0.6 16.2 2.6 0 1.1 -2.7 1.4 -14 1.4 -13.3 0 -14 -0.1 -14 -2z"/>
  <path d="M205 337.6 c0 -2.1 3.3 -2.6 17.8 -2.6 12.5 0 13.2 0.1 13.2 2 0 1.9 -0.7 2 -15.5 2 -12.5 0 -15.5 -0.3 -15.5 -1.4z"/>
  <path d="M535 337 c0 -1.8 0.7 -2 6.3 -2 7.6 0 10.7 0.8 10.7 2.6 0 1.1 -1.9 1.4 -8.5 1.4 -7.8 0 -8.5 -0.2 -8.5 -2z"/>
  <path d="M578 337.6 c0 -1.9 3.2 -2.6 11.8 -2.6 6.5 0 7.2 0.2 7.2 2 0 1.9 -0.7 2 -9.5 2 -7.4 0 -9.5 -0.3 -9.5 -1.4z"/>
  <path d="M658 337 c0 -1.7 0.7 -2 4.3 -2 5.6 0 8.7 0.9 8.7 2.6 0 1.1 -1.6 1.4 -6.5 1.4 -5.8 0 -6.5 -0.2 -6.5 -2z"/>
  <path d="M687 337.6 c0 -1.5 3 -2.6 7.3 -2.6 2 0 2.7 0.5 2.7 2 0 1.7 -0.7 2 -5 2 -3.6 0 -5 -0.4 -5 -1.4z"/>
  <path d="M729 337 c0 -1.8 0.7 -2 6.8 -2 8 0 11.2 0.8 11.2 2.6 0 1.1 -2 1.4 -9 1.4 -8.3 0 -9 -0.1 -9 -2z"/>
  <path d="M770 337.6 c0 -1.8 3.1 -2.6 10.8 -2.6 5.5 0 6.2 0.2 6.2 2 0 1.8 -0.7 2 -8.5 2 -6.6 0 -8.5 -0.3 -8.5 -1.4z"/>
  <path d="M837 337 c0 -1.8 0.7 -2 5.8 -2 7.1 0 10.2 0.8 10.2 2.6 0 1.1 -1.9 1.4 -8 1.4 -7.3 0 -8 -0.2 -8 -2z"/>
  <path d="M877 337.6 c0 -1.8 3.1 -2.6 10.8 -2.6 5.5 0 6.2 0.2 6.2 2 0 1.8 -0.7 2 -8.5 2 -6.6 0 -8.5 -0.3 -8.5 -1.4z"/>
  <path d="M182.7 285.2 c-1.6 -1.7 -1.7 -11.8 -1.7 -124.5 l0 -122.7 69 0.2 c76.4 0.3 72.3 -0.1 72.3 6.8 0 6.8 3.3 6.4 -65.6 7 l-62.2 0.5 -0.3 115.4 c-0.2 105.7 -0.3 115.6 -1.9 117.3 -2.1 2.3 -7.5 2.3 -9.6 0z"/>
  <path d="M782.1 284.4 c-2.1 -2.7 -2.1 -2.8 -2.1 -117.5 l0 -114.9 -53.9 0 c-29.7 0 -54.7 -0.3 -55.6 -0.6 -1 -0.4 -2.3 -2.1 -3 -3.8 -1.1 -2.5 -1.1 -3.5 0.1 -5.8 0.8 -1.5 2.4 -3 3.7 -3.3 1.2 -0.3 29.3 -0.4 62.5 -0.3 l60.2 0.3 0 121.9 c0 135.3 0.4 126.6 -6.5 126.6 -2.4 0 -3.9 -0.7 -5.4 -2.6z"/>
  <path d="M362.9 106.5 c-6.3 -8.6 -11.4 -16.2 -11.4 -16.9 0 -1.2 18 -15.1 21.1 -16.3 1.1 -0.4 4.4 3.2 4.4 4.9 0 0.4 -3.4 3.3 -7.5 6.3 -4.1 3.1 -7.5 6 -7.5 6.5 0 0.5 1.1 2.2 2.4 3.7 l2.4 2.8 6.1 -4.2 c6.8 -4.9 7.6 -5.1 9.1 -2.4 1.6 3.1 1.3 3.5 -4.5 7.6 -3.1 2.1 -5.8 4.2 -6.1 4.6 -0.6 1.1 4.4 7.9 5.8 7.9 0.6 0 4.1 -2.2 7.9 -5 3.8 -2.7 7.4 -5 8.1 -5 0.7 0 2.1 1.1 3 2.5 1.8 2.3 1.7 2.4 -2 5.3 -6.7 5.2 -18.2 13.2 -19.1 13.2 -0.5 0 -6 -7 -12.2 -15.5z"/>
  <path d="M614.3 117.3 c-1.3 -0.8 -2.3 -2 -2.3 -2.4 0 -0.5 4.3 -6.6 9.5 -13.6 5.2 -6.9 9.2 -12.9 8.9 -13.4 -0.3 -0.5 -1.5 -0.9 -2.8 -0.9 -1.2 0 -2.5 -0.3 -2.9 -0.6 -0.4 -0.5 0.8 -4.6 1.9 -6.3 0.2 -0.2 2.7 0.2 5.6 0.9 5.1 1.3 9.7 3.7 9.8 5.2 0 0.4 -3.7 5.8 -8.3 12 -17.2 23.6 -15.5 21.9 -19.4 19.1z"/>
  <path d="M585.8 99.1 c-5.9 -3.1 -11 -5.9 -11.3 -6.3 -1.2 -1.2 2.6 -6.8 5.8 -8.5 1.7 -0.9 7.5 -2.8 12.7 -4.2 8 -2.2 9.7 -3 11 -5.4 1.5 -2.7 1.4 -2.9 -1.8 -5.8 -2.4 -2.2 -4.2 -2.9 -7.2 -2.9 -3.9 0 -4 -0.1 -4 -3.5 0 -3.5 0.1 -3.5 4.3 -3.5 8.4 0 17.7 7.3 17.7 13.9 -0.1 6.7 -5.4 11.2 -16.5 13.6 -4 0.9 -8.1 2.3 -9.1 3 -1.6 1.1 -1.1 1.6 5.4 4.9 4 2 7.5 4.3 7.8 5.1 0.7 1.7 -1.3 5.5 -2.9 5.4 -0.7 0 -6 -2.6 -11.9 -5.8z"/>
  <path d="M405.4 97.7 c-0.3 -0.9 -0.4 -2.6 -0.2 -3.8 0.2 -1.9 1 -2.4 4.1 -2.6 7.7 -0.4 11.6 -6.3 6 -8.8 -1.3 -0.5 -2.3 -1.5 -2.3 -2.2 0 -0.8 -1.3 -1.3 -3.5 -1.3 -2.4 0 -3.5 0.5 -3.5 1.5 0 2.3 -3.8 1.8 -6.5 -1 -3.8 -3.7 -3.5 -9.7 0.8 -14 3 -3 8.8 -5.5 12.8 -5.5 1.7 0 3.4 4.3 2.4 6 -0.4 0.6 -1.8 1 -3.3 1 -3.9 0 -7.4 2.7 -7 5.3 0.3 2 1.1 2.3 8.1 2.8 9.6 0.8 12.7 3 12.7 9.1 0 5.3 -2.1 8.9 -6.7 11.5 -5.2 2.9 -13.1 4.1 -13.9 2z"/>
  <path d="M547.4 84.6 c-9.7 -4.4 -12.1 -19 -5.1 -30.7 4.9 -8.1 13.8 -12.9 15 -8.2 0.4 1.7 0.5 1.7 0.6 0.1 0.2 -4 9 -0.4 12.3 5.1 5.2 8.3 1.6 25.3 -6.6 31.6 -4.4 3.3 -11.5 4.3 -16.2 2.1z m10.7 -6.7 c5.9 -3.1 9.1 -19.9 4.7 -24.6 -6.6 -7 -16.7 2.3 -16.8 15.5 0 4.3 0.5 5.7 2.5 7.7 2.6 2.7 6.3 3.2 9.6 1.4z"/>
  <path d="M440.8 82.7 c-1.8 -1.7 -3.7 -5.6 -5.9 -12.6 -2.9 -9.1 -3.4 -10.1 -5.6 -10.1 -3.1 0 -4.9 -3.9 -2.6 -5.7 0.9 -0.7 2 -1.4 2.4 -1.5 0.5 -0.2 0.4 -2 -0.2 -4.2 -1.2 -4.2 -0.7 -5.1 3.2 -6.1 2.3 -0.6 2.7 -0.2 3.8 3.4 1.3 4.4 3.2 5.1 8.5 3.2 2.2 -0.9 2.6 -0.7 3.5 2 1.1 3.2 0.4 3.8 -6.5 5.5 -1.7 0.4 -2.3 1.2 -2 2.3 3.6 12.5 4.9 16.3 6.2 17.6 1.8 1.7 3.6 1.9 5 0.5 0.7 -0.7 1.7 -0.3 3.2 1.3 2.2 2.3 2.2 2.4 0.3 4.1 -1.1 1 -3.9 2.1 -6.3 2.3 -3.6 0.4 -4.7 0.1 -7 -2z m-3.8 -27.7 c0 -0.5 -0.7 -1 -1.5 -1 -0.8 0 -1.5 0.5 -1.5 1 0 0.6 0.7 1 1.5 1 0.8 0 1.5 -0.4 1.5 -1z"/>
  <path d="M463.2 79.8 c-1.8 -1.8 -1.4 -6.3 0.8 -8.3 3.6 -3.3 9 0.3 8.1 5.5 -0.6 3.5 -6.4 5.3 -8.9 2.8z"/>
  <path d="M513.8 78.3 c-1 -0.2 -1.8 -1.1 -1.8 -1.9 0 -0.8 -0.4 -1.4 -1 -1.4 -0.5 0 -1 0.7 -1 1.5 0 1.3 -1.1 1.5 -5.7 1.3 -5.7 -0.3 -5.8 -0.3 -6.1 -3.6 -0.5 -4.8 2.9 -9.5 11.4 -15.7 7.8 -5.8 9.9 -8.5 8.9 -11.4 -0.7 -2.4 -5.8 -4.5 -9 -3.7 -1.4 0.3 -3.6 0.9 -4.9 1.2 -1.9 0.5 -2.5 0.1 -3 -2.1 -0.9 -3.4 -0.3 -4.2 4.2 -5.5 12 -3.3 22 2.7 20.8 12.5 -0.5 4.1 -0.7 4.4 -14.7 16.7 -2.3 2.1 -4 4 -3.8 4.2 0.3 0.3 12.8 1.5 16.7 1.6 0.7 0 1.2 1.4 1.2 3.5 l0 3.5 -5.2 -0.1 c-2.9 -0.1 -6.1 -0.3 -7 -0.6z m-6.5 -5 c-1.5 -0.3 -2.3 -1.2 -2.3 -2.6 0 -2 0 -2 -1.5 -0.1 -2.2 2.9 -1.8 3.4 2.3 3.3 2.3 -0.1 2.8 -0.3 1.5 -0.6z"/>
 </g>
 <g fill="#000000">
  <path d="M398.3 505 c-2.9 -0.6 -9.2 -2.6 -14 -4.5 -4.8 -1.9 -12.1 -4.5 -16.3 -5.6 -4.1 -1.2 -7.8 -2.3 -8.1 -2.5 -0.4 -0.2 0.2 -4.8 1.2 -10.1 1 -5.4 2.8 -16.5 4 -24.7 2.1 -13.2 2.5 -14.9 4.5 -15.8 1.3 -0.6 3.3 -0.8 4.7 -0.4 2.2 0.5 2.5 1.2 3 7.4 1.2 14.9 6 27.1 14.1 36 7 7.6 12.6 10.2 22.1 10.2 11.5 0 18.1 -3.6 22.8 -12.5 1.6 -3 2.1 -5.9 2.1 -12 0.1 -11.9 -2.2 -15.9 -18.9 -32.5 -25.3 -25.1 -33.2 -36.2 -35.6 -49.9 -3.9 -21.9 11.6 -46.2 33.8 -53.1 9 -2.8 23.3 -4.3 32.8 -3.6 4.4 0.4 14.4 2.3 22.1 4.2 7.8 1.8 15.1 3.4 16.3 3.4 2.5 0 2.5 -1.1 0.2 15.2 -1.1 7.3 -2.3 16.7 -2.7 20.8 -1 11.3 -1.5 12.2 -6.6 11.8 l-4.3 -0.3 -0.6 -8.1 c-1 -13.5 -6.8 -25.3 -16.2 -32.8 -3.6 -2.9 -4.5 -3.1 -11.5 -3.1 -6.9 0 -8.2 0.3 -12.2 3 -6.3 4.2 -9 9.9 -9 19 0 10.4 2.5 14.8 15.5 27.5 33.6 32.7 37.9 39.6 38 61.6 0 10.8 -0.1 11.1 -3.9 19 -7.6 15.4 -20.9 25.7 -39.2 30.4 -9.1 2.4 -29.8 3.5 -38.1 2z"/>
  <path d="M552.7 504.8 c-1.4 -1.1 -1.9 -5.1 -3.2 -22.8 -1.7 -23.4 -4.8 -67.6 -6.5 -91.5 -1.6 -21.9 -2.9 -32.3 -4.4 -35.9 -1.9 -4.6 -5.9 -7.4 -12.7 -8.8 -6.5 -1.3 -7.8 -3.1 -6.1 -7.7 l0.9 -2.4 46.1 -0.1 46.2 -0.1 0 2.8 c0 4.8 -1.6 6.7 -5.9 6.7 -2 0 -6 0.7 -8.8 1.5 -10.4 3.1 -10.8 5.2 -8.9 45.5 2.2 43.5 2.8 52 3.6 52 0.4 0 3 -3 5.7 -6.7 14.1 -19.1 32.7 -44.2 41.3 -55.8 15.9 -21.4 17 -23.2 17 -27.9 0 -5.8 -1.7 -7.7 -7.4 -8.3 l-4.7 -0.6 0.3 -4.6 0.3 -4.6 29.7 0 29.8 0 0 3.2 c0 5 -0.9 6.3 -4.4 6.3 -4.5 0 -13.2 2.7 -17.5 5.5 -7.5 4.6 -13.9 12.6 -57.1 71 -5.7 7.7 -16.7 22.6 -24.5 33 -7.7 10.5 -19.2 25.9 -25.4 34.3 -6.3 8.4 -12.2 15.7 -13.2 16.2 -2.5 1.4 -8.2 1.2 -10.2 -0.2z"/>
  <path d="M71.3 500.3 c-0.8 -2.1 2.1 -6.7 4.7 -7.5 1.4 -0.4 5.2 -1.5 8.4 -2.4 10 -2.7 11.8 -5.8 17.5 -29.9 4.4 -18.8 15.8 -67.2 18.7 -79.5 1.4 -5.8 3.2 -13.4 4 -16.9 2.8 -11.6 0.1 -16.4 -10.5 -18.2 -6.9 -1.2 -7.8 -2.3 -6.5 -7.1 l0.9 -3.1 67.8 -0.1 67.7 -0.1 -0.5 2.5 c-0.9 4.4 -2.4 21.1 -3.1 35.7 -0.7 13.9 -0.7 14.2 -3.1 14.8 -4.7 1.1 -5.9 -0.1 -7.2 -7.2 -2.3 -12.5 -9.9 -24.5 -19 -30 -8.1 -4.9 -24.3 -5.8 -32 -1.9 -5.2 2.7 -6 5.1 -15.5 45.6 -1.4 5.8 -2.6 11.6 -2.8 13 l-0.3 2.5 9.9 -0.2 c6 -0.2 12 -0.9 14.9 -1.9 6.2 -2.1 12.1 -7.9 15.2 -14.9 2.4 -5.4 4.6 -6.8 8.6 -5.8 2.6 0.7 2.5 1.7 -2.5 21.3 -2.1 8 -4.6 19.4 -5.7 25.4 -2.5 13.9 -3 14.8 -7.7 14.4 l-3.7 -0.3 -0.6 -7.5 c-0.6 -8.4 -2.5 -12.9 -6.8 -15.9 -3.8 -2.7 -11.4 -4.3 -18.7 -3.9 l-5.9 0.3 -4.7 19 c-7.7 31.1 -9.3 39.9 -7.8 43.5 2.1 5.1 5.2 6 20.7 6 11.9 0 14.7 -0.4 20.4 -2.4 9.1 -3.2 16.7 -8.5 24.5 -17 5.8 -6.3 13.4 -19 13.4 -22.5 0 -1.2 6.8 -1.5 8.7 -0.3 0.9 0.5 0.3 4.1 -2.2 13.9 -1.8 7.2 -4.5 18.4 -6 24.9 -1.4 6.6 -2.8 12.6 -3 13.4 -0.4 1.3 -9.6 1.5 -75.1 1.5 -56.8 0 -74.8 -0.3 -75.1 -1.2z"/>
  <path d="M676 499 c0.1 -4.2 2.4 -6 9.4 -7.5 3.7 -0.8 8 -2.2 9.6 -3.2 5.5 -3.2 6.2 -5.6 19.4 -61.3 17.2 -72.8 17.1 -72.4 14.1 -76.7 -1.6 -2.2 -9.8 -5.3 -14.2 -5.3 -1.9 0 -2.3 -0.5 -2.3 -3.2 0 -6.6 -2.4 -6.2 44.9 -6.3 28 0 43.1 0.3 43.2 1 0.6 5.2 -1.8 8.1 -7.6 8.9 -10.3 1.6 -13.7 6.9 -19.1 29.4 -2 8.1 -4.6 19 -6 24.3 -1.3 5.3 -2.4 10.3 -2.4 11.2 0 1.6 2.5 1.7 28.5 1.7 l28.4 0 1 -3.7 c1 -3.7 3.4 -13.8 8.5 -35.6 3.1 -12.9 3.4 -20.6 0.9 -23.5 -1 -1.2 -4.3 -2.7 -7.3 -3.5 -4.8 -1.1 -5.5 -1.7 -5.8 -4 -0.2 -1.4 0.1 -3.4 0.7 -4.4 0.9 -1.6 4 -1.8 44 -1.8 27.8 0 43.2 0.4 43.4 1 0.2 0.6 -0.1 2.6 -0.8 4.5 -1.1 3.3 -1.6 3.6 -6.6 4.3 -9 1.3 -13.4 4 -16.2 10 -2.3 5 -3.4 9 -9.1 32.7 -1.4 5.8 -4.4 18.2 -6.6 27.5 -14.7 61.2 -15.3 63.9 -14 68.6 1.2 4.3 3.9 6.2 10.5 7.3 6.9 1.2 7.5 1.6 7.5 4.4 -0.1 6 1.5 5.8 -45.5 5.7 -42.5 -0.1 -43 -0.1 -43.3 -2.1 -0.5 -3.4 3 -6.6 8.9 -8.1 2.9 -0.8 6.4 -2 7.6 -2.9 3.3 -2.1 6.7 -9.6 9.1 -19.9 8.5 -36.2 10.2 -43.8 10.2 -44.6 0 -0.5 -12.3 -0.9 -28.5 -0.9 l-28.5 0 -0.5 2.3 c-0.3 1.2 -2 8.5 -3.9 16.2 -7.3 30.4 -8.1 34.2 -8.1 40.3 0 7.3 1.1 8.7 7.8 9.7 8.2 1.3 9.1 2.3 6.7 7.7 l-1.1 2.3 -43.4 0 -43.5 0 0 -2.5z"/>
  <path d="M270.9 428.3 c-0.9 -1 -1.4 -4.1 -1.4 -8.2 0 -11.1 -3.2 -10.1 33.4 -10.1 20.1 0 32.2 0.4 32.6 1 1.1 1.8 0.7 16.1 -0.6 17.6 -0.9 1.2 -6.6 1.4 -31.9 1.4 -27.4 0 -30.9 -0.2 -32.1 -1.7z"/>
  <path d="M368.3 112.7 c-3.8 -5 -9.2 -12.4 -12 -16.3 l-5.1 -7.1 8.1 -6 c13.6 -9.9 13.4 -9.9 15.7 -7.8 1.1 1 2 2.1 2 2.4 0 0.4 -3.6 3.3 -8 6.5 -4.5 3.2 -7.9 6.1 -7.8 6.5 1.7 3.2 4.5 7.1 5.2 7.1 0.5 0 3.7 -2 7.1 -4.5 l6.3 -4.5 1.6 2.5 c1.5 2.3 1.5 2.4 -4.9 7 -4.1 2.9 -6.3 5.1 -5.8 5.8 1.7 2.9 5.6 7.7 6.3 7.7 0.4 0 4.2 -2.6 8.5 -5.7 l7.8 -5.7 1.8 2.3 c1.1 1.3 1.9 2.6 1.9 3 -0.1 0.3 -2.4 2.3 -5.3 4.3 -2.9 2 -7.7 5.5 -10.8 7.7 l-5.7 4.1 -6.9 -9.3z"/>
  <path d="M614.7 116.8 l-2.7 -2.3 9.5 -12.5 c5.2 -6.9 9.4 -13 9.5 -13.7 0 -0.6 -1.3 -1.4 -3 -1.8 -3.4 -0.8 -3.4 -0.6 -1.9 -3.8 1.1 -2.4 1.2 -2.4 6.1 -1.2 6.3 1.7 10.2 4.2 9 5.8 -0.5 0.7 -5.5 7.5 -11.2 15.2 -13.5 18.4 -12.2 17.1 -15.3 14.3z"/>
  <path d="M585.8 98.6 l-11.7 -6.2 1.8 -3 c2.6 -4.3 5.4 -5.8 15.6 -8.4 11.7 -3 13.7 -4.2 13.3 -8.2 -0.4 -3.9 -4.1 -6.8 -9.6 -7.5 -3.2 -0.4 -4.2 -1 -4.2 -2.4 0 -3.3 3.5 -4.2 9.3 -2.5 12.8 3.7 16.4 17.2 6 22.4 -2.1 1.1 -6.5 2.5 -9.8 3.2 -5.5 1.1 -11.5 3.5 -11.5 4.5 0 0.2 3.6 2.3 8 4.6 4.7 2.4 7.8 4.6 7.5 5.3 -0.3 0.6 -0.8 1.9 -1.1 2.9 -0.4 0.9 -0.9 1.7 -1.3 1.6 -0.3 0 -5.9 -2.9 -12.3 -6.3z"/>
  <path d="M406 95.1 c0 -2.8 0.3 -3.1 3 -3.1 3.7 0 8.5 -2.3 9.4 -4.5 0.3 -0.9 0.1 -2.5 -0.4 -3.6 -0.9 -1.6 -2.2 -1.9 -7.9 -1.9 -8.1 0 -11.7 -2.1 -12.7 -7.5 -1.2 -6.6 5.9 -13.5 14.1 -13.5 3.1 0 3.5 0.3 3.5 2.5 0 1.9 -0.5 2.5 -2.2 2.5 -3.3 0 -8.8 3.7 -8.8 5.8 0 3.3 2.2 4.2 9.6 4.2 6.8 0 7.4 0.2 9.8 3.1 6.3 7.4 -0.2 17.1 -12.3 18.6 l-5.1 0.6 0 -3.2z"/>
  <path d="M549 84.9 c-6.4 -2.7 -10 -8.5 -10 -16.2 0 -14.7 10.2 -26.4 21.3 -24.3 7.8 1.5 11.7 7.4 11.7 17.9 0 14.7 -12.5 27 -23 22.6z m8.9 -6.4 c4.2 -2.1 7.4 -9.6 7.5 -17.3 0.1 -5.8 -0.2 -6.6 -2.7 -8.8 -1.5 -1.3 -3.9 -2.4 -5.1 -2.4 -8 0 -15.4 16.6 -11.2 24.9 2.5 4.8 6.7 6.1 11.5 3.6z"/>
  <path d="M442.4 83.1 c-2.6 -1.6 -3.6 -3.4 -6.2 -11.8 -1.8 -5.4 -3.2 -10.5 -3.2 -11.2 0 -1 -0.9 -1.2 -3 -0.8 -1.6 0.4 -3 0.2 -3 -0.2 0 -0.5 -0.3 -1.6 -0.6 -2.5 -0.4 -1.1 0.2 -1.9 1.9 -2.5 2.4 -0.9 2.5 -1.2 1.5 -5.1 -0.9 -3.4 -0.8 -4.4 0.3 -5.1 2.9 -1.8 4.7 -1 5.3 2.7 0.8 4.2 2.2 4.9 7.2 3.5 4.4 -1.2 4.3 -1.2 4.6 1.9 0.3 2 -0.3 2.6 -3.4 3.4 -2 0.6 -4 1.4 -4.4 1.8 -0.8 0.9 2.2 12.9 4.4 17.3 1.9 3.9 3 4.5 6 3.4 1.9 -0.7 2.7 -0.6 3.8 0.8 1.1 1.5 1 2.1 -0.4 3.5 -2.7 2.8 -7.3 3.2 -10.8 0.9z"/>
  <path d="M464 79 c-2.4 -2.4 -2.5 -4.3 -0.4 -6.5 2.5 -2.5 6.7 -1.5 7.9 1.9 0.8 2.4 0.6 3.1 -1.4 4.7 -2.9 2.4 -3.6 2.4 -6.1 -0.1z"/>
  <path d="M520 78.3 c-1.9 -0.1 -7.7 -0.6 -12.8 -0.9 l-9.4 -0.6 0.7 -3.5 c1 -5.3 2.2 -6.9 11.8 -14.4 7.6 -6.1 8.7 -7.3 8.7 -10.1 0 -1.8 -0.7 -3.6 -1.7 -4.4 -2.1 -1.6 -8.1 -1.8 -11.8 -0.4 -2.2 0.8 -2.7 0.7 -3.4 -1.3 -1.6 -3.9 0.9 -5.2 10 -5.2 7.8 0 8.1 0.1 11 3.3 3.2 3.5 3.8 8.1 1.8 12.6 -0.7 1.4 -4.5 5.1 -8.5 8.1 -6.7 5.2 -9.2 8.1 -8 9.3 0.3 0.2 4.2 0.7 8.6 1.1 4.4 0.3 8 0.9 8 1.4 0 0.4 0 1.8 0 3.2 0 1.4 -0.3 2.4 -0.7 2.3 -0.5 0 -2.4 -0.3 -4.3 -0.5z"/>
 </g>
</svg>